{
  "accessors": [
    {
      "bufferView": 2,
      "componentType": 5126,
      "count": 1579,
      "max": [
        0.8862299919128418,
        1.0142450332641602,
        2.1875
      ],
      "min": [
        -0.8862299919128418,
        -0.06705400347709656,
        -2.167968988418579
      ],
      "type": "VEC3"
    },
    {
      "bufferView": 2,
      "byteOffset": 18948,
      "componentType": 5126,
      "count": 1579,
      "max": [
        1.0,
        0.9999499917030334,
        1.0
      ],
      "min": [
        -1.0,
        -1.0,
        -1.0
      ],
      "type": "VEC3"
    },
    {
      "bufferView": 0,
      "componentType": 5125,
      "count": 5160,
      "type": "SCALAR"
    },
    {
      "bufferView": 2,
      "byteOffset": 37896,
      "componentType": 5126,
      "count": 1227,
      "max": [
        0.7192379832267761,
        0.7100459933280945,
        0.5126950144767761
      ],
      "min": [
        -0.7192379832267761,
        0.23690199851989746,
        -0.13732899725437164
      ],
      "type": "VEC3"
    },
    {
      "bufferView": 2,
      "byteOffset": 52620,
      "componentType": 5126,
      "count": 1227,
      "max": [
        0.9999499917030334,
        0.9999001026153564,
        0.9987025260925293
      ],
      "min": [
        -0.9558037519454956,
        -0.9675841331481934,
        -0.9979562759399414
      ],
      "type": "VEC3"
    },
    {
      "bufferView": 3,
      "componentType": 5126,
      "count": 1227,
      "max": [
        0.9925090670585632,
        0.9962641596794128,
        0.9404976963996887,
        1.0
      ],
      "min": [
        -0.999999463558197,
        -0.9799020290374756,
        -0.9911580681800842,
        -1.0
      ],
      "type": "VEC4"
    },
    {
      "bufferView": 1,
      "componentType": 5126,
      "count": 1227,
      "max": [
        7.933594226837158,
        4.679687976837158
      ],
      "min": [
        -5.582030773162842,
        -6.78125
      ],
      "type": "VEC2"
    },
    {
      "bufferView": 1,
      "byteOffset": 9816,
      "componentType": 5126,
      "count": 1227,
      "max": [
        7.933594226837158,
        4.679687976837158
      ],
      "min": [
        -5.582030773162842,
        -6.78125
      ],
      "type": "VEC2"
    },
    {
      "bufferView": 0,
      "byteOffset": 20640,
      "componentType": 5125,
      "count": 5256,
      "type": "SCALAR"
    },
    {
      "bufferView": 2,
      "byteOffset": 67344,
      "componentType": 5126,
      "count": 27481,
      "max": [
        0.9370120167732239,
        1.063073992729187,
        2.166016101837158
      ],
      "min": [
        -0.9370120167732239,
        0.03423500061035156,
        -2.232422113418579
      ],
      "type": "VEC3"
    },
    {
      "bufferView": 2,
      "byteOffset": 397116,
      "componentType": 5126,
      "count": 27481,
      "max": [
        1.0,
        1.0,
        1.0
      ],
      "min": [
        -1.0,
        -1.0,
        -1.0
      ],
      "type": "VEC3"
    },
    {
      "bufferView": 1,
      "byteOffset": 19632,
      "componentType": 5126,
      "count": 27481,
      "max": [
        0.9609379768371582,
        0.9726560115814209
      ],
      "min": [
        0.024444999173283577,
        0.4072270095348358
      ],
      "type": "VEC2"
    },
    {
      "bufferView": 0,
      "byteOffset": 41664,
      "componentType": 5125,
      "count": 82632,
      "type": "SCALAR"
    },
    {
      "bufferView": 2,
      "byteOffset": 726888,
      "componentType": 5126,
      "count": 27859,
      "max": [
        0.7133790254592896,
        0.7002800107002258,
        2.068358898162842
      ],
      "min": [
        -0.7128909826278687,
        0.2937859892845154,
        0.6201170086860657
      ],
      "type": "VEC3"
    },
    {
      "bufferView": 2,
      "byteOffset": 1061196,
      "componentType": 5126,
      "count": 27859,
      "max": [
        1.0,
        1.0,
        1.0
      ],
      "min": [
        -1.0,
        -1.0,
        -1.0
      ],
      "type": "VEC3"
    },
    {
      "bufferView": 3,
      "byteOffset": 19632,
      "componentType": 5126,
      "count": 27859,
      "max": [
        1.0,
        1.0,
        1.0,
        1.0
      ],
      "min": [
        -1.0,
        -1.0,
        -1.0,
        -1.0
      ],
      "type": "VEC4"
    },
    {
      "bufferView": 1,
      "byteOffset": 239480,
      "componentType": 5126,
      "count": 27859,
      "max": [
        0.9975590109825134,
        0.9702150225639343
      ],
      "min": [
        -0.00022000000171829015,
        0.0
      ],
      "type": "VEC2"
    },
    {
      "bufferView": 1,
      "byteOffset": 462352,
      "componentType": 5126,
      "count": 27859,
      "max": [
        0.9975590109825134,
        0.9702150225639343
      ],
      "min": [
        -0.00022000000171829015,
        0.0
      ],
      "type": "VEC2"
    },
    {
      "bufferView": 1,
      "byteOffset": 685224,
      "componentType": 5126,
      "count": 27859,
      "max": [
        0.9975590109825134,
        0.9702150225639343
      ],
      "min": [
        -0.00022000000171829015,
        0.0
      ],
      "type": "VEC2"
    },
    {
      "bufferView": 0,
      "byteOffset": 372192,
      "componentType": 5125,
      "count": 74496,
      "type": "SCALAR"
    },
    {
      "bufferView": 2,
      "byteOffset": 1395504,
      "componentType": 5126,
      "count": 384,
      "max": [
        0.7226560115814209,
        0.6197140216827393,
        2.158202886581421
      ],
      "min": [
        -0.7226560115814209,
        0.06868799775838852,
        1.4121090173721313
      ],
      "type": "VEC3"
    },
    {
      "bufferView": 2,
      "byteOffset": 1400112,
      "componentType": 5126,
      "count": 384,
      "max": [
        0.6280560493469238,
        0.9863083362579346,
        0.9628931283950806
      ],
      "min": [
        -0.6280560493469238,
        -0.9837453961372375,
        -0.3100775480270386
      ],
      "type": "VEC3"
    },
    {
      "bufferView": 3,
      "byteOffset": 465376,
      "componentType": 5126,
      "count": 384,
      "max": [
        1.0,
        0.9117340445518494,
        0.41078129410743713,
        1.0
      ],
      "min": [
        -1.0,
        -0.1802801489830017,
        -0.6283275485038757,
        -1.0
      ],
      "type": "VEC4"
    },
    {
      "bufferView": 1,
      "byteOffset": 908096,
      "componentType": 5126,
      "count": 384,
      "max": [
        49.5,
        14.632811546325684
      ],
      "min": [
        -18.03125,
        -30.359375
      ],
      "type": "VEC2"
    },
    {
      "bufferView": 1,
      "byteOffset": 911168,
      "componentType": 5126,
      "count": 384,
      "max": [
        49.5,
        14.632811546325684
      ],
      "min": [
        -18.03125,
        -30.359375
      ],
      "type": "VEC2"
    },
    {
      "bufferView": 1,
      "byteOffset": 914240,
      "componentType": 5126,
      "count": 384,
      "max": [
        49.5,
        14.632811546325684
      ],
      "min": [
        -18.03125,
        -30.359375
      ],
      "type": "VEC2"
    },
    {
      "bufferView": 0,
      "byteOffset": 670176,
      "componentType": 5125,
      "count": 1224,
      "type": "SCALAR"
    },
    {
      "bufferView": 2,
      "byteOffset": 1404720,
      "componentType": 5126,
      "count": 9,
      "max": [
        0.3252849876880646,
        0.2662059962749481,
        2.07989501953125
      ],
      "min": [
        -0.3252849876880646,
        0.08516299724578857,
        2.0758659839630127
      ],
      "type": "VEC3"
    },
    {
      "bufferView": 2,
      "byteOffset": 1404828,
      "componentType": 5126,
      "count": 9,
      "max": [
        0.0,
        -0.019996002316474915,
        0.9998001456260681
      ],
      "min": [
        0.0,
        -0.022249069064855576,
        0.9997524619102478
      ],
      "type": "VEC3"
    },
    {
      "bufferView": 3,
      "byteOffset": 471520,
      "componentType": 5126,
      "count": 9,
      "max": [
        1.0,
        0.0,
        0.0,
        1.0
      ],
      "min": [
        1.0,
        -8.54758491186658e-06,
        -1.8857996053611714e-07,
        1.0
      ],
      "type": "VEC4"
    },
    {
      "bufferView": 1,
      "byteOffset": 917312,
      "componentType": 5126,
      "count": 9,
      "max": [
        15.044146537780762,
        5.118998050689697
      ],
      "min": [
        -13.421318054199219,
        -6.990754127502441
      ],
      "type": "VEC2"
    },
    {
      "bufferView": 1,
      "byteOffset": 917384,
      "componentType": 5126,
      "count": 9,
      "max": [
        15.044146537780762,
        5.118998050689697
      ],
      "min": [
        -13.421318054199219,
        -6.990754127502441
      ],
      "type": "VEC2"
    },
    {
      "bufferView": 0,
      "byteOffset": 675072,
      "componentType": 5125,
      "count": 12,
      "type": "SCALAR"
    },
    {
      "bufferView": 2,
      "byteOffset": 1404936,
      "componentType": 5126,
      "count": 2580,
      "max": [
        0.6450200080871582,
        0.6397330164909363,
        1.6582030057907104
      ],
      "min": [
        -0.6484379768371582,
        0.20894700288772583,
        0.3447270095348358
      ],
      "type": "VEC3"
    },
    {
      "bufferView": 2,
      "byteOffset": 1435896,
      "componentType": 5126,
      "count": 2580,
      "max": [
        1.0,
        1.0,
        1.0
      ],
      "min": [
        -1.0,
        -1.0,
        -0.9999499917030334
      ],
      "type": "VEC3"
    },
    {
      "bufferView": 3,
      "byteOffset": 471664,
      "componentType": 5126,
      "count": 2580,
      "max": [
        0.9999442100524902,
        0.999887228012085,
        0.9999033808708191,
        1.0
      ],
      "min": [
        -0.9999822974205017,
        -0.9998886585235596,
        -0.9999703168869019,
        1.0
      ],
      "type": "VEC4"
    },
    {
      "bufferView": 1,
      "byteOffset": 917456,
      "componentType": 5126,
      "count": 2580,
      "max": [
        5.234375,
        18.296875
      ],
      "min": [
        -2.75,
        -18.296875
      ],
      "type": "VEC2"
    },
    {
      "bufferView": 1,
      "byteOffset": 938096,
      "componentType": 5126,
      "count": 2580,
      "max": [
        5.234375,
        18.296875
      ],
      "min": [
        -2.75,
        -18.296875
      ],
      "type": "VEC2"
    },
    {
      "bufferView": 0,
      "byteOffset": 675120,
      "componentType": 5125,
      "count": 11217,
      "type": "SCALAR"
    },
    {
      "bufferView": 2,
      "byteOffset": 1466856,
      "componentType": 5126,
      "count": 5202,
      "max": [
        0.7241209745407104,
        1.1245969533920288,
        -0.8945310115814209
      ],
      "min": [
        -0.7241209745407104,
        0.42000699043273926,
        -2.140625
      ],
      "type": "VEC3"
    },
    {
      "bufferView": 2,
      "byteOffset": 1529280,
      "componentType": 5126,
      "count": 5202,
      "max": [
        1.0,
        1.0,
        0.9996002912521362
      ],
      "min": [
        -1.0,
        -0.9995504021644592,
        -0.9993506669998169
      ],
      "type": "VEC3"
    },
    {
      "bufferView": 3,
      "byteOffset": 512944,
      "componentType": 5126,
      "count": 5202,
      "max": [
        0.9999496340751648,
        1.0,
        0.9995540380477905,
        1.0
      ],
      "min": [
        -0.9995505213737488,
        -0.9999654293060303,
        -1.0,
        -1.0
      ],
      "type": "VEC4"
    },
    {
      "bufferView": 1,
      "byteOffset": 958736,
      "componentType": 5126,
      "count": 5202,
      "max": [
        0.9941409826278687,
        0.9960939884185791
      ],
      "min": [
        0.003519000019878149,
        0.008895999751985073
      ],
      "type": "VEC2"
    },
    {
      "bufferView": 1,
      "byteOffset": 1000352,
      "componentType": 5126,
      "count": 5202,
      "max": [
        0.9941409826278687,
        0.9960939884185791
      ],
      "min": [
        0.003519000019878149,
        0.008895999751985073
      ],
      "type": "VEC2"
    },
    {
      "bufferView": 1,
      "byteOffset": 1041968,
      "componentType": 5126,
      "count": 5202,
      "max": [
        0.9941409826278687,
        0.9960939884185791
      ],
      "min": [
        0.003519000019878149,
        0.008895999751985073
      ],
      "type": "VEC2"
    },
    {
      "bufferView": 0,
      "byteOffset": 719988,
      "componentType": 5125,
      "count": 12930,
      "type": "SCALAR"
    },
    {
      "bufferView": 2,
      "byteOffset": 1591704,
      "componentType": 5126,
      "count": 373,
      "max": [
        0.7177730202674866,
        0.6914910078048706,
        0.5649420022964478
      ],
      "min": [
        -0.7177730202674866,
        0.40487000346183777,
        -1.0302729606628418
      ],
      "type": "VEC3"
    },
    {
      "bufferView": 2,
      "byteOffset": 1596180,
      "componentType": 5126,
      "count": 373,
      "max": [
        0.9999499917030334,
        0.9982048869132996,
        0.9206908345222473
      ],
      "min": [
        -0.9999499917030334,
        -0.7532459497451782,
        -0.6426726579666138
      ],
      "type": "VEC3"
    },
    {
      "bufferView": 3,
      "byteOffset": 596176,
      "componentType": 5126,
      "count": 373,
      "max": [
        0.9195665121078491,
        0.3795247972011566,
        0.9998016953468323,
        1.0
      ],
      "min": [
        -0.9195665717124939,
        -0.30268988013267517,
        -0.9999926686286926,
        -1.0
      ],
      "type": "VEC4"
    },
    {
      "bufferView": 1,
      "byteOffset": 1083584,
      "componentType": 5126,
      "count": 373,
      "max": [
        5.464844226837158,
        5.371094226837158
      ],
      "min": [
        -4.464844226837158,
        -4.375
      ],
      "type": "VEC2"
    },
    {
      "bufferView": 1,
      "byteOffset": 1086568,
      "componentType": 5126,
      "count": 373,
      "max": [
        5.464844226837158,
        5.371094226837158
      ],
      "min": [
        -4.464844226837158,
        -4.375
      ],
      "type": "VEC2"
    },
    {
      "bufferView": 0,
      "byteOffset": 771708,
      "componentType": 5125,
      "count": 1734,
      "type": "SCALAR"
    },
    {
      "bufferView": 2,
      "byteOffset": 1600656,
      "componentType": 5126,
      "count": 722,
      "max": [
        0.5175780057907104,
        0.6314330101013184,
        -0.6738280057907104
      ],
      "min": [
        -0.5175780057907104,
        0.3589720129966736,
        -1.8310550451278687
      ],
      "type": "VEC3"
    },
    {
      "bufferView": 2,
      "byteOffset": 1609320,
      "componentType": 5126,
      "count": 722,
      "max": [
        0.9938837289810181,
        1.0,
        0.8344646692276001
      ],
      "min": [
        -0.9938837289810181,
        0.0,
        -0.572129487991333
      ],
      "type": "VEC3"
    },
    {
      "bufferView": 3,
      "byteOffset": 602144,
      "componentType": 5126,
      "count": 722,
      "max": [
        0.5852381587028503,
        0.9979075789451599,
        0.9938837289810181,
        1.0
      ],
      "min": [
        -1.0,
        -0.9938893914222717,
        -0.7918013334274292,
        -1.0
      ],
      "type": "VEC4"
    },
    {
      "bufferView": 1,
      "byteOffset": 1089552,
      "componentType": 5126,
      "count": 722,
      "max": [
        4.75,
        22.0
      ],
      "min": [
        -3.75,
        -15.992188453674316
      ],
      "type": "VEC2"
    },
    {
      "bufferView": 1,
      "byteOffset": 1095328,
      "componentType": 5126,
      "count": 722,
      "max": [
        4.75,
        22.0
      ],
      "min": [
        -3.75,
        -15.992188453674316
      ],
      "type": "VEC2"
    },
    {
      "bufferView": 0,
      "byteOffset": 778644,
      "componentType": 5125,
      "count": 2076,
      "type": "SCALAR"
    },
    {
      "bufferView": 2,
      "byteOffset": 1617984,
      "componentType": 5126,
      "count": 47,
      "max": [
        0.8241350054740906,
        0.17241500318050385,
        0.4342530071735382
      ],
      "min": [
        -0.8241350054740906,
        0.11350300163030624,
        -0.3558120131492615
      ],
      "type": "VEC3"
    },
    {
      "bufferView": 2,
      "byteOffset": 1618548,
      "componentType": 5126,
      "count": 47,
      "max": [
        0.09989018738269806,
        0.9995004534721375,
        0.05984460934996605
      ],
      "min": [
        -0.09989018738269806,
        0.98891282081604,
        -0.10987920314073563
      ],
      "type": "VEC3"
    },
    {
      "bufferView": 3,
      "byteOffset": 613696,
      "componentType": 5126,
      "count": 47,
      "max": [
        0.026345252990722656,
        0.05934282764792442,
        -0.9939389228820801,
        1.0
      ],
      "min": [
        -0.026345252990722656,
        -0.10967356711626053,
        -0.9999503493309021,
        -1.0
      ],
      "type": "VEC4"
    },
    {
      "bufferView": 1,
      "byteOffset": 1101104,
      "componentType": 5126,
      "count": 47,
      "max": [
        3.4828789234161377,
        0.9967880249023438
      ],
      "min": [
        -3.380537986755371,
        0.6563770174980164
      ],
      "type": "VEC2"
    },
    {
      "bufferView": 1,
      "byteOffset": 1101480,
      "componentType": 5126,
      "count": 47,
      "max": [
        3.4828789234161377,
        0.9967880249023438
      ],
      "min": [
        -3.380537986755371,
        0.6563770174980164
      ],
      "type": "VEC2"
    },
    {
      "bufferView": 0,
      "byteOffset": 786948,
      "componentType": 5125,
      "count": 108,
      "type": "SCALAR"
    },
    {
      "bufferView": 2,
      "byteOffset": 1619112,
      "componentType": 5126,
      "count": 54040,
      "max": [
        0.8735349774360657,
        1.042565941810608,
        0.84375
      ],
      "min": [
        -0.8735349774360657,
        0.019204000011086464,
        -2.076172113418579
      ],
      "type": "VEC3"
    },
    {
      "bufferView": 2,
      "byteOffset": 2267592,
      "componentType": 5126,
      "count": 54040,
      "max": [
        1.0,
        1.0,
        1.0
      ],
      "min": [
        -1.0,
        -1.0,
        -1.0
      ],
      "type": "VEC3"
    },
    {
      "bufferView": 3,
      "byteOffset": 614448,
      "componentType": 5126,
      "count": 54040,
      "max": [
        1.0,
        1.0,
        1.0,
        1.0
      ],
      "min": [
        -1.0,
        -1.0,
        -1.0,
        -1.0
      ],
      "type": "VEC4"
    },
    {
      "bufferView": 1,
      "byteOffset": 1101856,
      "componentType": 5126,
      "count": 54040,
      "max": [
        2.525391101837158,
        0.9946290254592896
      ],
      "min": [
        -1.3984379768371582,
        0.0016550000291317701
      ],
      "type": "VEC2"
    },
    {
      "bufferView": 1,
      "byteOffset": 1534176,
      "componentType": 5126,
      "count": 54040,
      "max": [
        2.525391101837158,
        0.9946290254592896
      ],
      "min": [
        -1.3984379768371582,
        0.0016550000291317701
      ],
      "type": "VEC2"
    },
    {
      "bufferView": 1,
      "byteOffset": 1966496,
      "componentType": 5126,
      "count": 54040,
      "max": [
        2.525391101837158,
        0.9946290254592896
      ],
      "min": [
        -1.3984379768371582,
        0.0016550000291317701
      ],
      "type": "VEC2"
    },
    {
      "bufferView": 0,
      "byteOffset": 787380,
      "componentType": 5125,
      "count": 179088,
      "type": "SCALAR"
    },
    {
      "bufferView": 2,
      "byteOffset": 2916072,
      "componentType": 5126,
      "count": 16342,
      "max": [
        0.8764650225639343,
        0.7720580101013184,
        2.162108898162842
      ],
      "min": [
        -0.8764650225639343,
        -0.06565000116825104,
        -2.242187976837158
      ],
      "type": "VEC3"
    },
    {
      "bufferView": 2,
      "byteOffset": 3112176,
      "componentType": 5126,
      "count": 16342,
      "max": [
        1.0,
        1.0,
        1.0
      ],
      "min": [
        -1.0,
        -1.0,
        -1.0
      ],
      "type": "VEC3"
    },
    {
      "bufferView": 1,
      "byteOffset": 2398816,
      "componentType": 5126,
      "count": 16342,
      "max": [
        0.9941409826278687,
        0.9985349774360657
      ],
      "min": [
        0.012558000162243843,
        0.005504999775439501
      ],
      "type": "VEC2"
    },
    {
      "bufferView": 0,
      "byteOffset": 1503732,
      "componentType": 5125,
      "count": 37800,
      "type": "SCALAR"
    },
    {
      "bufferView": 2,
      "byteOffset": 3308280,
      "componentType": 5126,
      "count": 97,
      "max": [
        0.15240000188350677,
        0.4886209964752197,
        -2.1951260566711426
      ],
      "min": [
        -0.15240000188350677,
        0.33624300360679626,
        -2.200805902481079
      ],
      "type": "VEC3"
    },
    {
      "bufferView": 2,
      "byteOffset": 3309444,
      "componentType": 5126,
      "count": 97,
      "max": [
        0.9999499917030334,
        0.9998001456260681,
        0.9998001456260681
      ],
      "min": [
        -0.9999499917030334,
        -0.9998001456260681,
        -0.9998001456260681
      ],
      "type": "VEC3"
    },
    {
      "bufferView": 1,
      "byteOffset": 2529552,
      "componentType": 5126,
      "count": 97,
      "max": [
        1.0,
        1.0
      ],
      "min": [
        0.0,
        0.0
      ],
      "type": "VEC2"
    },
    {
      "bufferView": 0,
      "byteOffset": 1654932,
      "componentType": 5125,
      "count": 384,
      "type": "SCALAR"
    },
    {
      "bufferView": 2,
      "byteOffset": 3310608,
      "componentType": 5126,
      "count": 25940,
      "max": [
        0.9443359971046448,
        1.0796749591827393,
        2.259766101837158
      ],
      "min": [
        -0.9443359971046448,
        -0.06772500276565552,
        -2.257812023162842
      ],
      "type": "VEC3"
    },
    {
      "bufferView": 2,
      "byteOffset": 3621888,
      "componentType": 5126,
      "count": 25940,
      "max": [
        1.0,
        1.0,
        0.9999499917030334
      ],
      "min": [
        -1.0,
        -1.0,
        -1.0
      ],
      "type": "VEC3"
    },
    {
      "bufferView": 1,
      "byteOffset": 2530328,
      "componentType": 5126,
      "count": 25940,
      "max": [
        1.020508050918579,
        1.0019530057907104
      ],
      "min": [
        -0.02419999986886978,
        -0.009537000209093094
      ],
      "type": "VEC2"
    },
    {
      "bufferView": 0,
      "byteOffset": 1656468,
      "componentType": 5125,
      "count": 112032,
      "type": "SCALAR"
    },
    {
      "bufferView": 2,
      "byteOffset": 3933168,
      "componentType": 5126,
      "count": 3312,
      "max": [
        0.6582030057907104,
        0.6988160014152527,
        -0.09436000138521194
      ],
      "min": [
        -0.6875,
        0.033257998526096344,
        -0.6245120167732239
      ],
      "type": "VEC3"
    },
    {
      "bufferView": 2,
      "byteOffset": 3972912,
      "componentType": 5126,
      "count": 3312,
      "max": [
        1.0,
        0.9998001456260681,
        0.9999499917030334
      ],
      "min": [
        -1.0,
        -0.9993506669998169,
        -0.9995004534721375
      ],
      "type": "VEC3"
    },
    {
      "bufferView": 1,
      "byteOffset": 2737848,
      "componentType": 5126,
      "count": 3312,
      "max": [
        0.9589840173721313,
        0.9692379832267761
      ],
      "min": [
        0.17248499393463135,
        0.4111329913139343
      ],
      "type": "VEC2"
    },
    {
      "bufferView": 0,
      "byteOffset": 2104596,
      "componentType": 5125,
      "count": 10824,
      "type": "SCALAR"
    },
    {
      "bufferView": 2,
      "byteOffset": 4012656,
      "componentType": 5126,
      "count": 5761,
      "max": [
        0.9042969942092896,
        1.1744019985198975,
        2.212891101837158
      ],
      "min": [
        -0.9042969942092896,
        0.024330999702215195,
        -2.203125
      ],
      "type": "VEC3"
    },
    {
      "bufferView": 2,
      "byteOffset": 4081788,
      "componentType": 5126,
      "count": 5761,
      "max": [
        1.0,
        0.9999499917030334,
        1.0
      ],
      "min": [
        -1.0,
        -1.0,
        -1.0
      ],
      "type": "VEC3"
    },
    {
      "bufferView": 1,
      "byteOffset": 2764344,
      "componentType": 5126,
      "count": 5761,
      "max": [
        0.9980469942092896,
        0.9912109971046448
      ],
      "min": [
        0.009529000148177147,
        0.01028400007635355
      ],
      "type": "VEC2"
    },
    {
      "bufferView": 0,
      "byteOffset": 2147892,
      "componentType": 5125,
      "count": 22203,
      "type": "SCALAR"
    },
    {
      "bufferView": 2,
      "byteOffset": 4150920,
      "componentType": 5126,
      "count": 2851,
      "max": [
        0.8271480202674866,
        1.0142450332641602,
        2.162108898162842
      ],
      "min": [
        -0.8271480202674866,
        0.18892799317836761,
        -2.242187976837158
      ],
      "type": "VEC3"
    },
    {
      "bufferView": 2,
      "byteOffset": 4185132,
      "componentType": 5126,
      "count": 2851,
      "max": [
        0.9999499917030334,
        1.0,
        1.0
      ],
      "min": [
        -0.9999499917030334,
        -1.0,
        -1.0
      ],
      "type": "VEC3"
    },
    {
      "bufferView": 1,
      "byteOffset": 2810432,
      "componentType": 5126,
      "count": 2851,
      "max": [
        0.9614260196685791,
        0.7963870167732239
      ],
      "min": [
        0.9072269797325134,
        0.7573239803314209
      ],
      "type": "VEC2"
    },
    {
      "bufferView": 0,
      "byteOffset": 2236704,
      "componentType": 5125,
      "count": 11496,
      "type": "SCALAR"
    },
    {
      "bufferView": 2,
      "byteOffset": 4219344,
      "componentType": 5126,
      "count": 150,
      "max": [
        0.8784180283546448,
        0.31014299392700195,
        1.7734379768371582
      ],
      "min": [
        -0.8784180283546448,
        0.2723020017147064,
        1.6552729606628418
      ],
      "type": "VEC3"
    },
    {
      "bufferView": 2,
      "byteOffset": 4221144,
      "componentType": 5126,
      "count": 150,
      "max": [
        0.9600000381469727,
        0.9999499917030334,
        0.9582767486572266
      ],
      "min": [
        -0.9600000381469727,
        -0.9999499917030334,
        -0.9599521160125732
      ],
      "type": "VEC3"
    },
    {
      "bufferView": 1,
      "byteOffset": 2833240,
      "componentType": 5126,
      "count": 150,
      "max": [
        0.9614260196685791,
        0.7963870167732239
      ],
      "min": [
        0.9223629832267761,
        0.7573239803314209
      ],
      "type": "VEC2"
    },
    {
      "bufferView": 0,
      "byteOffset": 2282688,
      "componentType": 5125,
      "count": 708,
      "type": "SCALAR"
    },
    {
      "bufferView": 2,
      "byteOffset": 4222944,
      "componentType": 5126,
      "count": 255,
      "max": [
        0.7382810115814209,
        0.9981319904327393,
        0.7470700144767761
      ],
      "min": [
        -0.7382810115814209,
        0.6817259788513184,
        -0.9238280057907104
      ],
      "type": "VEC3"
    },
    {
      "bufferView": 2,
      "byteOffset": 4226004,
      "componentType": 5126,
      "count": 255,
      "max": [
        0.9079594612121582,
        -0.41887056827545166,
        0.034321367740631104
      ],
      "min": [
        -0.9079594612121582,
        -0.9021224975585938,
        -0.46108487248420715
      ],
      "type": "VEC3"
    },
    {
      "bufferView": 1,
      "byteOffset": 2834440,
      "componentType": 5126,
      "count": 255,
      "max": [
        0.9809569716453552,
        0.8212890028953552
      ],
      "min": [
        0.9096680283546448,
        0.7617189884185791
      ],
      "type": "VEC2"
    },
    {
      "bufferView": 0,
      "byteOffset": 2285520,
      "componentType": 5125,
      "count": 894,
      "type": "SCALAR"
    },
    {
      "bufferView": 2,
      "byteOffset": 4229064,
      "componentType": 5126,
      "count": 388,
      "max": [
        0.4973140060901642,
        0.6729369759559631,
        -2.03125
      ],
      "min": [
        -0.4973140060901642,
        0.5860229730606079,
        -2.103516101837158
      ],
      "type": "VEC3"
    },
    {
      "bufferView": 2,
      "byteOffset": 4233720,
      "componentType": 5126,
      "count": 388,
      "max": [
        0.9840925335884094,
        0.9995004534721375,
        0.06999299675226212
      ],
      "min": [
        -0.9840925335884094,
        -0.7692696452140808,
        -0.9963698983192444
      ],
      "type": "VEC3"
    },
    {
      "bufferView": 1,
      "byteOffset": 2836480,
      "componentType": 5126,
      "count": 388,
      "max": [
        0.9721680283546448,
        0.8227540254592896
      ],
      "min": [
        0.9082030057907104,
        0.7587890028953552
      ],
      "type": "VEC2"
    },
    {
      "bufferView": 0,
      "byteOffset": 2289096,
      "componentType": 5125,
      "count": 1728,
      "type": "SCALAR"
    },
    {
      "bufferView": 2,
      "byteOffset": 4238376,
      "componentType": 5126,
      "count": 122,
      "max": [
        0.5874019861221313,
        0.6665890216827393,
        -2.005858898162842
      ],
      "min": [
        -0.5874019861221313,
        0.5860229730606079,
        -2.046875
      ],
      "type": "VEC3"
    },
    {
      "bufferView": 2,
      "byteOffset": 4239840,
      "componentType": 5126,
      "count": 122,
      "max": [
        0.9479641318321228,
        0.9912895560264587,
        -0.09026667475700378
      ],
      "min": [
        -0.9479641318321228,
        -0.6599670052528381,
        -0.9983043670654297
      ],
      "type": "VEC3"
    },
    {
      "bufferView": 1,
      "byteOffset": 2839584,
      "componentType": 5126,
      "count": 122,
      "max": [
        0.9721680283546448,
        0.8227540254592896
      ],
      "min": [
        0.9082030057907104,
        0.7587890028953552
      ],
      "type": "VEC2"
    },
    {
      "bufferView": 0,
      "byteOffset": 2296008,
      "componentType": 5125,
      "count": 576,
      "type": "SCALAR"
    },
    {
      "bufferView": 2,
      "byteOffset": 4241304,
      "componentType": 5126,
      "count": 5754,
      "max": [
        0.12780800461769104,
        0.32348600029945374,
        0.32348600029945374
      ],
      "min": [
        -0.12011700123548508,
        -0.32348600029945374,
        -0.32348600029945374
      ],
      "type": "VEC3"
    },
    {
      "bufferView": 2,
      "byteOffset": 4310352,
      "componentType": 5126,
      "count": 5754,
      "max": [
        1.0,
        1.0,
        1.0
      ],
      "min": [
        -1.0,
        -1.0,
        -1.0
      ],
      "type": "VEC3"
    },
    {
      "bufferView": 3,
      "byteOffset": 1479088,
      "componentType": 5126,
      "count": 5754,
      "max": [
        1.0,
        1.0,
        1.0,
        1.0
      ],
      "min": [
        -1.0,
        -1.0,
        -1.0,
        -1.0
      ],
      "type": "VEC4"
    },
    {
      "bufferView": 1,
      "byteOffset": 2840560,
      "componentType": 5126,
      "count": 5754,
      "max": [
        0.9926760196685791,
        0.9960939884185791
      ],
      "min": [
        0.0027119999285787344,
        0.003700000001117587
      ],
      "type": "VEC2"
    },
    {
      "bufferView": 1,
      "byteOffset": 2886592,
      "componentType": 5126,
      "count": 5754,
      "max": [
        0.9926760196685791,
        0.9960939884185791
      ],
      "min": [
        0.0027119999285787344,
        0.003700000001117587
      ],
      "type": "VEC2"
    },
    {
      "bufferView": 0,
      "byteOffset": 2298312,
      "componentType": 5125,
      "count": 21045,
      "type": "SCALAR"
    },
    {
      "bufferView": 2,
      "byteOffset": 4379400,
      "componentType": 5126,
      "count": 5784,
      "max": [
        0.12780800461769104,
        0.32348600029945374,
        0.32348600029945374
      ],
      "min": [
        -0.12011700123548508,
        -0.32348600029945374,
        -0.32348600029945374
      ],
      "type": "VEC3"
    },
    {
      "bufferView": 2,
      "byteOffset": 4448808,
      "componentType": 5126,
      "count": 5784,
      "max": [
        1.0,
        1.0,
        1.0
      ],
      "min": [
        -1.0,
        -1.0,
        -1.0
      ],
      "type": "VEC3"
    },
    {
      "bufferView": 3,
      "byteOffset": 1571152,
      "componentType": 5126,
      "count": 5784,
      "max": [
        1.0,
        1.0,
        1.0,
        1.0
      ],
      "min": [
        -1.0,
        -1.0,
        -1.0,
        -1.0
      ],
      "type": "VEC4"
    },
    {
      "bufferView": 1,
      "byteOffset": 2932624,
      "componentType": 5126,
      "count": 5784,
      "max": [
        0.9926760196685791,
        0.9960939884185791
      ],
      "min": [
        0.0027119999285787344,
        0.003700000001117587
      ],
      "type": "VEC2"
    },
    {
      "bufferView": 1,
      "byteOffset": 2978896,
      "componentType": 5126,
      "count": 5784,
      "max": [
        0.9926760196685791,
        0.9960939884185791
      ],
      "min": [
        0.0027119999285787344,
        0.003700000001117587
      ],
      "type": "VEC2"
    },
    {
      "bufferView": 0,
      "byteOffset": 2382492,
      "componentType": 5125,
      "count": 21045,
      "type": "SCALAR"
    },
    {
      "bufferView": 2,
      "byteOffset": 4518216,
      "componentType": 5126,
      "count": 5849,
      "max": [
        0.13781699538230896,
        0.31957998871803284,
        0.31957998871803284
      ],
      "min": [
        -0.13513199985027313,
        -0.31957998871803284,
        -0.31957998871803284
      ],
      "type": "VEC3"
    },
    {
      "bufferView": 2,
      "byteOffset": 4588404,
      "componentType": 5126,
      "count": 5849,
      "max": [
        1.0,
        0.9993506669998169,
        0.9993506669998169
      ],
      "min": [
        -1.0,
        -0.9993506669998169,
        -0.9993506669998169
      ],
      "type": "VEC3"
    },
    {
      "bufferView": 3,
      "byteOffset": 1663696,
      "componentType": 5126,
      "count": 5849,
      "max": [
        1.0,
        1.0,
        1.0,
        1.0
      ],
      "min": [
        -1.0,
        -0.9992009997367859,
        -1.0,
        -1.0
      ],
      "type": "VEC4"
    },
    {
      "bufferView": 1,
      "byteOffset": 3025168,
      "componentType": 5126,
      "count": 5849,
      "max": [
        0.9926760196685791,
        0.9960939884185791
      ],
      "min": [
        0.0027119999285787344,
        0.003700000001117587
      ],
      "type": "VEC2"
    },
    {
      "bufferView": 1,
      "byteOffset": 3071960,
      "componentType": 5126,
      "count": 5849,
      "max": [
        0.9926760196685791,
        0.9960939884185791
      ],
      "min": [
        0.0027119999285787344,
        0.003700000001117587
      ],
      "type": "VEC2"
    },
    {
      "bufferView": 0,
      "byteOffset": 2466672,
      "componentType": 5125,
      "count": 20748,
      "type": "SCALAR"
    },
    {
      "bufferView": 2,
      "byteOffset": 4658592,
      "componentType": 5126,
      "count": 5856,
      "max": [
        0.13781699538230896,
        0.31957998871803284,
        0.31957998871803284
      ],
      "min": [
        -0.13513199985027313,
        -0.31957998871803284,
        -0.31957998871803284
      ],
      "type": "VEC3"
    },
    {
      "bufferView": 2,
      "byteOffset": 4728864,
      "componentType": 5126,
      "count": 5856,
      "max": [
        1.0,
        0.9993506669998169,
        0.9993506669998169
      ],
      "min": [
        -1.0,
        -0.9993506669998169,
        -0.9993506669998169
      ],
      "type": "VEC3"
    },
    {
      "bufferView": 3,
      "byteOffset": 1757280,
      "componentType": 5126,
      "count": 5856,
      "max": [
        1.0,
        1.0,
        1.0,
        1.0
      ],
      "min": [
        -1.0,
        -0.9992009997367859,
        -1.0,
        -1.0
      ],
      "type": "VEC4"
    },
    {
      "bufferView": 1,
      "byteOffset": 3118752,
      "componentType": 5126,
      "count": 5856,
      "max": [
        0.9926760196685791,
        0.9960939884185791
      ],
      "min": [
        0.0027119999285787344,
        0.003700000001117587
      ],
      "type": "VEC2"
    },
    {
      "bufferView": 1,
      "byteOffset": 3165600,
      "componentType": 5126,
      "count": 5856,
      "max": [
        0.9926760196685791,
        0.9960939884185791
      ],
      "min": [
        0.0027119999285787344,
        0.003700000001117587
      ],
      "type": "VEC2"
    },
    {
      "bufferView": 0,
      "byteOffset": 2549664,
      "componentType": 5125,
      "count": 21345,
      "type": "SCALAR"
    },
    {
      "bufferView": 2,
      "byteOffset": 4799136,
      "componentType": 5126,
      "count": 240,
      "max": [
        0.07531700283288956,
        0.14001500606536865,
        0.04303000122308731
      ],
      "min": [
        -0.07531700283288956,
        -0.14001500606536865,
        -0.04303000122308731
      ],
      "type": "VEC3"
    },
    {
      "bufferView": 2,
      "byteOffset": 4802016,
      "componentType": 5126,
      "count": 240,
      "max": [
        0.9999992847442627,
        1.0,
        0.9987025260925293
      ],
      "min": [
        -0.9206908345222473,
        -1.0,
        -0.9934333562850952
      ],
      "type": "VEC3"
    },
    {
      "bufferView": 3,
      "byteOffset": 1850976,
      "componentType": 5126,
      "count": 240,
      "max": [
        0.9997984766960144,
        0.9958552718162537,
        1.0,
        1.0
      ],
      "min": [
        -0.9899397492408752,
        -0.5608053207397461,
        -0.9837737679481506,
        -1.0
      ],
      "type": "VEC4"
    },
    {
      "bufferView": 1,
      "byteOffset": 3212448,
      "componentType": 5126,
      "count": 240,
      "max": [
        0.8701170086860657,
        1.9912110567092896
      ],
      "min": [
        0.39135700464248657,
        0.5068359971046448
      ],
      "type": "VEC2"
    },
    {
      "bufferView": 0,
      "byteOffset": 2635044,
      "componentType": 5125,
      "count": 744,
      "type": "SCALAR"
    },
    {
      "bufferView": 2,
      "byteOffset": 4804896,
      "componentType": 5126,
      "count": 237,
      "max": [
        0.07531700283288956,
        0.14001500606536865,
        0.04303000122308731
      ],
      "min": [
        -0.07531700283288956,
        -0.14001500606536865,
        -0.04303000122308731
      ],
      "type": "VEC3"
    },
    {
      "bufferView": 2,
      "byteOffset": 4807740,
      "componentType": 5126,
      "count": 237,
      "max": [
        0.99473637342453,
        1.0,
        0.9987025260925293
      ],
      "min": [
        -0.9206908345222473,
        -1.0,
        -0.9934333562850952
      ],
      "type": "VEC3"
    },
    {
      "bufferView": 3,
      "byteOffset": 1854816,
      "componentType": 5126,
      "count": 237,
      "max": [
        0.9997984766960144,
        0.9958552718162537,
        1.0,
        1.0
      ],
      "min": [
        -0.9899397492408752,
        -0.5608053207397461,
        -0.9837737679481506,
        -1.0
      ],
      "type": "VEC4"
    },
    {
      "bufferView": 1,
      "byteOffset": 3214368,
      "componentType": 5126,
      "count": 237,
      "max": [
        0.8701170086860657,
        1.9912110567092896
      ],
      "min": [
        0.39135700464248657,
        0.5068359971046448
      ],
      "type": "VEC2"
    },
    {
      "bufferView": 0,
      "byteOffset": 2638020,
      "componentType": 5125,
      "count": 744,
      "type": "SCALAR"
    },
    {
      "bufferView": 2,
      "byteOffset": 4810584,
      "componentType": 5126,
      "count": 237,
      "max": [
        0.07531700283288956,
        0.14001500606536865,
        0.04303000122308731
      ],
      "min": [
        -0.07531700283288956,
        -0.14001500606536865,
        -0.04303000122308731
      ],
      "type": "VEC3"
    },
    {
      "bufferView": 2,
      "byteOffset": 4813428,
      "componentType": 5126,
      "count": 237,
      "max": [
        0.99473637342453,
        1.0,
        0.9987025260925293
      ],
      "min": [
        -0.9206908345222473,
        -1.0,
        -0.9934333562850952
      ],
      "type": "VEC3"
    },
    {
      "bufferView": 3,
      "byteOffset": 1858608,
      "componentType": 5126,
      "count": 237,
      "max": [
        0.9997984766960144,
        0.9958552718162537,
        1.0,
        1.0
      ],
      "min": [
        -0.9899397492408752,
        -0.5608053207397461,
        -0.9837737679481506,
        -1.0
      ],
      "type": "VEC4"
    },
    {
      "bufferView": 1,
      "byteOffset": 3216264,
      "componentType": 5126,
      "count": 237,
      "max": [
        0.8701170086860657,
        1.9912110567092896
      ],
      "min": [
        0.39135700464248657,
        0.5068359971046448
      ],
      "type": "VEC2"
    },
    {
      "bufferView": 0,
      "byteOffset": 2640996,
      "componentType": 5125,
      "count": 744,
      "type": "SCALAR"
    },
    {
      "bufferView": 2,
      "byteOffset": 4816272,
      "componentType": 5126,
      "count": 237,
      "max": [
        0.07531700283288956,
        0.14001500606536865,
        0.04303000122308731
      ],
      "min": [
        -0.07531700283288956,
        -0.14001500606536865,
        -0.04303000122308731
      ],
      "type": "VEC3"
    },
    {
      "bufferView": 2,
      "byteOffset": 4819116,
      "componentType": 5126,
      "count": 237,
      "max": [
        0.99473637342453,
        1.0,
        0.9987025260925293
      ],
      "min": [
        -0.9206908345222473,
        -1.0,
        -0.9934333562850952
      ],
      "type": "VEC3"
    },
    {
      "bufferView": 3,
      "byteOffset": 1862400,
      "componentType": 5126,
      "count": 237,
      "max": [
        0.9997984766960144,
        0.9958552718162537,
        1.0,
        1.0
      ],
      "min": [
        -0.9899397492408752,
        -0.5608053207397461,
        -0.9837737679481506,
        -1.0
      ],
      "type": "VEC4"
    },
    {
      "bufferView": 1,
      "byteOffset": 3218160,
      "componentType": 5126,
      "count": 237,
      "max": [
        0.8701170086860657,
        1.9912110567092896
      ],
      "min": [
        0.39135700464248657,
        0.5068359971046448
      ],
      "type": "VEC2"
    },
    {
      "bufferView": 0,
      "byteOffset": 2643972,
      "componentType": 5125,
      "count": 744,
      "type": "SCALAR"
    },
    {
      "bufferView": 2,
      "byteOffset": 4821960,
      "componentType": 5126,
      "count": 6,
      "max": [
        1.399999976158142,
        6.661338147750939e-16,
        3.0
      ],
      "min": [
        -1.399999976158142,
        -6.661338147750939e-16,
        -3.0
      ],
      "type": "VEC3"
    },
    {
      "bufferView": 2,
      "byteOffset": 4822032,
      "componentType": 5126,
      "count": 6,
      "max": [
        0.0,
        1.0,
        0.0
      ],
      "min": [
        0.0,
        1.0,
        0.0
      ],
      "type": "VEC3"
    },
    {
      "bufferView": 1,
      "byteOffset": 3220056,
      "componentType": 5126,
      "count": 6,
      "max": [
        1.0,
        1.0
      ],
      "min": [
        0.0,
        0.0
      ],
      "type": "VEC2"
    },
    {
      "bufferView": 0,
      "byteOffset": 2646948,
      "componentType": 5125,
      "count": 12,
      "type": "SCALAR"
    }
  ],
  "asset": {
    "extras": {
      "author": "Ddiaz Design (https://sketchfab.com/ddiaz-design)",
      "license": "CC-BY-NC-SA-4.0 (http://creativecommons.org/licenses/by-nc-sa/4.0/)",
      "source": "https://sketchfab.com/3d-models/1994-toyota-supra-mk-iv-bomex-fast-furious-126c185845724e0eadb35229677ba44b",
      "title": "1994 Toyota Supra MK IV Bomex Fast & Furious"
    },
    "generator": "Sketchfab-16.74.0",
    "version": "2.0"
  },
  "bufferViews": [
    {
      "buffer": 0,
      "byteLength": 2646996,
      "name": "floatBufferViews",
      "target": 34963
    },
    {
      "buffer": 0,
      "byteLength": 3220104,
      "byteOffset": 2646996,
      "byteStride": 8,
      "name": "floatBufferViews",
      "target": 34962
    },
    {
      "buffer": 0,
      "byteLength": 4822104,
      "byteOffset": 5867100,
      "byteStride": 12,
      "name": "floatBufferViews",
      "target": 34962
    },
    {
      "buffer": 0,
      "byteLength": 1866192,
      "byteOffset": 10689204,
      "byteStride": 16,
      "name": "floatBufferViews",
      "target": 34962
    }
  ],
  "buffers": [
    {
      "byteLength": 12555396,
      "uri": "scene.bin"
    }
  ],
  "extensionsUsed": [
    "KHR_materials_specular",
    "KHR_materials_clearcoat",
    "KHR_materials_transmission"
  ],
  "images": [
    {
      "uri": "textures/TToyota_SupraMKIVF1_1994Carbon2_Material1_baseColor.png"
    },
    {
      "uri": "textures/TToyota_SupraMKIVF1_1994Carbon2_Material1_normal.png"
    },
    {
      "uri": "textures/TToyota_SupraMKIVF1_1994Coloured_Material1_baseColor.png"
    },
    {
      "uri": "textures/TToyota_SupraMKIVF1_1994Coloured_Material1_metallicRoughness.png"
    },
    {
      "uri": "textures/TToyota_SupraMKIVF1_1994EngineA_Material1_baseColor.png"
    },
    {
      "uri": "textures/TToyota_SupraMKIVF1_1994EngineA_Material1_normal.png"
    },
    {
      "uri": "textures/TToyota_SupraMKIVF1_1994Grille1A_Material1_baseColor.png"
    },
    {
      "uri": "textures/TToyota_SupraMKIVF1_1994Grille1A_Material1_normal.png"
    },
    {
      "uri": "textures/TToyota_SupraMKIVF1_1994Grille2A_Material1_baseColor.png"
    },
    {
      "uri": "textures/TToyota_SupraMKIVF1_1994Grille2A_Material1_normal.png"
    },
    {
      "uri": "textures/TToyota_SupraMKIVF1_1994Grille3A_Material1_baseColor.png"
    },
    {
      "uri": "textures/TToyota_SupraMKIVF1_1994Grille3A_Material1_normal.png"
    },
    {
      "uri": "textures/TToyota_SupraMKIVF1_1994Grille4A_Material1_baseColor.png"
    },
    {
      "uri": "textures/TToyota_SupraMKIVF1_1994Grille4A_Material1_normal.png"
    },
    {
      "uri": "textures/TToyota_SupraMKIVF1_1994Grille6A_Material1_baseColor.png"
    },
    {
      "uri": "textures/TToyota_SupraMKIVF1_1994Grille6A_Material1_normal.png"
    },
    {
      "uri": "textures/TToyota_SupraMKIVF1_1994Grille7A_Material1_baseColor.png"
    },
    {
      "uri": "textures/TToyota_SupraMKIVF1_1994Grille7A_Material1_normal.png"
    },
    {
      "uri": "textures/TToyota_SupraMKIVF1_1994Grille8A_Material1_baseColor.png"
    },
    {
      "uri": "textures/TToyota_SupraMKIVF1_1994Grille8A_Material1_normal.png"
    },
    {
      "uri": "textures/TToyota_SupraMKIVF1_1994InteriorA_Material1_baseColor.png"
    },
    {
      "uri": "textures/TToyota_SupraMKIVF1_1994InteriorA_Material1_normal.png"
    },
    {
      "uri": "textures/TToyota_SupraMKIVF1_1994LightA_Material1_baseColor.png"
    },
    {
      "uri": "textures/TToyota_SupraMKIVF1_1994LightA_Material1_metallicRoughness.png"
    },
    {
      "uri": "textures/TToyota_SupraMKIVF1_1994ManufacturerPlateA_Material1_baseColor.png"
    },
    {
      "uri": "textures/TToyota_SupraMKIVF1_1994PaintA_Material1_baseColor.png"
    },
    {
      "uri": "textures/TToyota_SupraMKIVF1_1994TexturedA_Material1_baseColor.png"
    },
    {
      "uri": "textures/TToyota_SupraMKIVF1_1994_Wheel1A_3D_3DWheel1A_Material1_baseColor.png"
    },
    {
      "uri": "textures/TToyota_SupraMKIVF1_1994_Wheel1A_3D_3DWheel1A_Material1_metallicRoughness.png"
    },
    {
      "uri": "textures/TToyota_SupraMKIVF1_1994_Wheel1A_3D_3DWheel1A_Material1_normal.png"
    },
    {
      "uri": "textures/TToyota_SupraMKIVF1_1994CalliperGloss_Material1_normal.png"
    },
    {
      "uri": "textures/Toyota_SupraMKIVF1_1994UnderLightingA_Material_baseColor.png"
    }
  ],
  "materials": [
    {
      "doubleSided": true,
      "extensions": {
        "KHR_materials_specular": {
          "specularColorFactor": [
            1.0,
            1.0,
            1.0
          ],
          "specularFactor": 0.13257183259987076
        }
      },
      "name": "TToyota_SupraMKIVF1_1994Base_Material1",
      "pbrMetallicRoughness": {
        "baseColorFactor": [
          0.0,
          0.0,
          0.0,
          1.0
        ],
        "metallicFactor": 0.0,
        "roughnessFactor": 0.693335446355646
      }
    },
    {
      "doubleSided": true,
      "extensions": {
        "KHR_materials_clearcoat": {
          "clearcoatFactor": 0.33981055942265725,
          "clearcoatRoughnessFactor": 0.04
        },
        "KHR_materials_specular": {
          "specularColorFactor": [
            1.0,
            1.0,
            1.0
          ],
          "specularFactor": 0.05
        }
      },
      "name": "TToyota_SupraMKIVF1_1994Carbon2_Material1",
      "normalTexture": {
        "index": 1
      },
      "pbrMetallicRoughness": {
        "baseColorTexture": {
          "index": 0
        },
        "metallicFactor": 0.4,
        "roughnessFactor": 0.48
      }
    },
    {
      "doubleSided": true,
      "extensions": {
        "KHR_materials_specular": {
          "specularColorFactor": [
            1.0,
            1.0,
            1.0
          ],
          "specularFactor": 0.236191196011264
        }
      },
      "name": "TToyota_SupraMKIVF1_1994Coloured_Material1",
      "pbrMetallicRoughness": {
        "baseColorTexture": {
          "index": 2
        },
        "metallicRoughnessTexture": {
          "index": 3
        },
        "roughnessFactor": 0.23009593934000558
      }
    },
    {
      "alphaMode": "BLEND",
      "doubleSided": true,
      "extensions": {
        "KHR_materials_specular": {
          "specularColorFactor": [
            1.0,
            1.0,
            1.0
          ],
          "specularFactor": 0.16914337262742132
        }
      },
      "name": "TToyota_SupraMKIVF1_1994EngineA_Material1",
      "normalTexture": {
        "index": 5,
        "texCoord": 1
      },
      "pbrMetallicRoughness": {
        "baseColorTexture": {
          "index": 4
        },
        "metallicFactor": 0.7481927563969718,
        "roughnessFactor": 0.4190488961490168
      }
    },
    {
      "alphaMode": "BLEND",
      "doubleSided": true,
      "extensions": {
        "KHR_materials_specular": {
          "specularColorFactor": [
            1.0,
            1.0,
            1.0
          ],
          "specularFactor": 0.821335836452073
        }
      },
      "name": "TToyota_SupraMKIVF1_1994Grille1A_Material1",
      "normalTexture": {
        "index": 7
      },
      "pbrMetallicRoughness": {
        "baseColorTexture": {
          "index": 6
        },
        "metallicFactor": 0.7725737830820055,
        "roughnessFactor": 0.4739062061903426
      }
    },
    {
      "doubleSided": true,
      "extensions": {
        "KHR_materials_specular": {
          "specularColorFactor": [
            1.0,
            1.0,
            1.0
          ],
          "specularFactor": 0.1569528592849045
        }
      },
      "name": "TToyota_SupraMKIVF1_1994Grille2A_Material1",
      "normalTexture": {
        "index": 9,
        "texCoord": 1
      },
      "pbrMetallicRoughness": {
        "baseColorFactor": [
          0.4739062061903426,
          0.4739062061903426,
          0.4739062061903426,
          1.0
        ],
        "baseColorTexture": {
          "index": 8
        },
        "metallicFactor": 0.7420974997257134,
        "roughnessFactor": 0.6384781363143202
      }
    },
    {
      "doubleSided": true,
      "extensions": {
        "KHR_materials_specular": {
          "specularColorFactor": [
            1.0,
            1.0,
            1.0
          ],
          "specularFactor": 0.20571491265497188
        }
      },
      "name": "TToyota_SupraMKIVF1_1994Grille3A_Material1",
      "normalTexture": {
        "index": 11
      },
      "pbrMetallicRoughness": {
        "baseColorTexture": {
          "index": 10
        },
        "metallicFactor": 0.7116212163694212,
        "roughnessFactor": 0.650668649656837
      }
    },
    {
      "alphaMode": "BLEND",
      "doubleSided": true,
      "extensions": {
        "KHR_materials_specular": {
          "specularColorFactor": [
            1.0,
            1.0,
            1.0
          ],
          "specularFactor": 0.7299069863831965
        }
      },
      "name": "TToyota_SupraMKIVF1_1994Grille4A_Material1",
      "normalTexture": {
        "index": 13
      },
      "pbrMetallicRoughness": {
        "baseColorTexture": {
          "index": 12
        },
        "metallicFactor": 0.5348587729029269,
        "roughnessFactor": 0.30933427606636515
      }
    },
    {
      "doubleSided": true,
      "extensions": {
        "KHR_materials_specular": {
          "specularColorFactor": [
            1.0,
            1.0,
            1.0
          ],
          "specularFactor": 0.21790542599748874
        }
      },
      "name": "TToyota_SupraMKIVF1_1994Grille6A_Material1",
      "normalTexture": {
        "index": 15
      },
      "pbrMetallicRoughness": {
        "baseColorTexture": {
          "index": 14
        },
        "metallicFactor": 0.7664785264107471,
        "roughnessFactor": 0.5958113396155111
      }
    },
    {
      "doubleSided": true,
      "extensions": {
        "KHR_materials_specular": {
          "specularColorFactor": [
            1.0,
            1.0,
            1.0
          ],
          "specularFactor": 0.19352439931245502
        }
      },
      "name": "TToyota_SupraMKIVF1_1994Grille7A_Material1",
      "normalTexture": {
        "index": 17,
        "texCoord": 1
      },
      "pbrMetallicRoughness": {
        "baseColorTexture": {
          "index": 16
        },
        "metallicFactor": 0.7299069863831965,
        "roughnessFactor": 0.6201923663005449
      }
    },
    {
      "doubleSided": true,
      "extensions": {
        "KHR_materials_specular": {
          "specularColorFactor": [
            1.0,
            1.0,
            1.0
          ],
          "specularFactor": 0.1386670892711292
        }
      },
      "name": "TToyota_SupraMKIVF1_1994Grille8A_Material1",
      "normalTexture": {
        "index": 19,
        "texCoord": 1
      },
      "pbrMetallicRoughness": {
        "baseColorTexture": {
          "index": 18
        },
        "metallicFactor": 0.7603832697394887,
        "roughnessFactor": 0.6140971096292864
      }
    },
    {
      "alphaMode": "BLEND",
      "doubleSided": true,
      "extensions": {
        "KHR_materials_specular": {
          "specularColorFactor": [
            1.0,
            1.0,
            1.0
          ],
          "specularFactor": 0.11428606258609549
        }
      },
      "name": "TToyota_SupraMKIVF1_1994InteriorA_Material1",
      "normalTexture": {
        "index": 21,
        "texCoord": 1
      },
      "pbrMetallicRoughness": {
        "baseColorTexture": {
          "index": 20
        },
        "metallicFactor": 0.5775255696017358,
        "roughnessFactor": 0.5409540295741854
      }
    },
    {
      "doubleSided": true,
      "extensions": {
        "KHR_materials_specular": {
          "specularColorFactor": [
            1.0,
            1.0,
            1.0
          ],
          "specularFactor": 1.0
        }
      },
      "name": "TToyota_SupraMKIVF1_1994LightA_Material1",
      "pbrMetallicRoughness": {
        "baseColorTexture": {
          "index": 22
        },
        "metallicRoughnessTexture": {
          "index": 23
        },
        "roughnessFactor": 0.20571491265497188
      }
    },
    {
      "doubleSided": true,
      "extensions": {
        "KHR_materials_specular": {
          "specularColorFactor": [
            1.0,
            1.0,
            1.0
          ],
          "specularFactor": 0.0
        }
      },
      "name": "TToyota_SupraMKIVF1_1994ManufacturerPlateA_Material1",
      "pbrMetallicRoughness": {
        "baseColorTexture": {
          "index": 24
        },
        "metallicFactor": 0.0
      }
    },
    {
      "doubleSided": true,
      "extensions": {
        "KHR_materials_specular": {
          "specularColorFactor": [
            1.0,
            1.0,
            1.0
          ],
          "specularFactor": 0.32152478940888196
        }
      },
      "name": "TToyota_SupraMKIVF1_1994PaintA_Material1",
      "pbrMetallicRoughness": {
        "baseColorTexture": {
          "index": 25
        },
        "metallicFactor": 0.047238239202252806,
        "roughnessFactor": 0.08380977922980336
      }
    },
    {
      "doubleSided": true,
      "extensions": {
        "KHR_materials_clearcoat": {
          "clearcoatFactor": 0.49828723287537635,
          "clearcoatRoughnessFactor": 0.04
        },
        "KHR_materials_specular": {
          "specularColorFactor": [
            1.0,
            1.0,
            1.0
          ],
          "specularFactor": 0.4007631261352415
        }
      },
      "name": "TToyota_SupraMKIVF1_1994TexturedA_Material1",
      "pbrMetallicRoughness": {
        "baseColorTexture": {
          "index": 26
        },
        "metallicFactor": 0.23009593934000558,
        "roughnessFactor": 0.2118101693262303
      }
    },
    {
      "alphaMode": "BLEND",
      "doubleSided": true,
      "extensions": {
        "KHR_materials_transmission": {
          "transmissionFactor": 1.0
        }
      },
      "name": "TToyota_SupraMKIVF1_1994Window_Material1",
      "pbrMetallicRoughness": {
        "baseColorFactor": [
          0.0,
          0.0,
          0.0,
          0.25
        ],
        "metallicFactor": 0.0,
        "roughnessFactor": 0.0
      }
    },
    {
      "alphaMode": "BLEND",
      "doubleSided": true,
      "extensions": {
        "KHR_materials_specular": {
          "specularColorFactor": [
            1.0,
            1.0,
            1.0
          ],
          "specularFactor": 1.0
        }
      },
      "name": "orange_glass",
      "pbrMetallicRoughness": {
        "baseColorFactor": [
          0.8741016688625401,
          0.15134489811876173,
          0.0,
          0.693335446355646
        ],
        "metallicFactor": 0.5836208262729943,
        "roughnessFactor": 0.0
      }
    },
    {
      "alphaMode": "BLEND",
      "doubleSided": true,
      "extensions": {
        "KHR_materials_specular": {
          "specularColorFactor": [
            1.0,
            1.0,
            1.0
          ],
          "specularFactor": 1.0
        }
      },
      "name": "red_glass",
      "pbrMetallicRoughness": {
        "baseColorFactor": [
          0.802,
          0.0,
          0.0,
          0.693335446355646
        ],
        "metallicFactor": 0.7055259596981628,
        "roughnessFactor": 0.0
      }
    },
    {
      "doubleSided": true,
      "extensions": {
        "KHR_materials_specular": {
          "specularColorFactor": [
            1.0,
            1.0,
            1.0
          ],
          "specularFactor": 0.3337153027513988
        }
      },
      "name": "TToyota_SupraMKIVF1_1994_Wheel1A_3D_3DWheel1A_Material1",
      "normalTexture": {
        "index": 29
      },
      "pbrMetallicRoughness": {
        "baseColorTexture": {
          "index": 27
        },
        "metallicRoughnessTexture": {
          "index": 28
        },
        "roughnessFactor": 0.2605722226962977
      }
    },
    {
      "doubleSided": true,
      "extensions": {
        "KHR_materials_specular": {
          "specularColorFactor": [
            1.0,
            1.0,
            1.0
          ],
          "specularFactor": 0.16914337262742132
        }
      },
      "name": "TToyota_SupraMKIVF1_1994CalliperGloss_Material1",
      "normalTexture": {
        "index": 30
      },
      "pbrMetallicRoughness": {
        "baseColorFactor": [
          0.022921162274018355,
          0.022921162274018355,
          0.022921162274018355,
          1.0
        ],
        "metallicFactor": 0.7177164730406796,
        "roughnessFactor": 0.5043824895466348
      }
    },
    {
      "doubleSided": true,
      "extensions": {
        "KHR_materials_specular": {
          "specularColorFactor": [
            1.0,
            1.0,
            1.0
          ],
          "specularFactor": 0.0
        }
      },
      "name": "Toyota_SupraMKIVF1_1994UnderLightingA_Material",
      "pbrMetallicRoughness": {
        "baseColorFactor": [
          0.0,
          0.0,
          0.0,
          1.0
        ],
        "baseColorTexture": {
          "index": 31
        },
        "metallicFactor": 0.0,
        "roughnessFactor": 0.0
      }
    }
  ],
  "meshes": [
    {
      "name": "T:Base_Geo_lodA_Base_Geo_lodA_Toyota_SupraMKIVF1_1994Base_Material_T:Toyota_SupraMKIVF1_1994Base_Material1_0",
      "primitives": [
        {
          "attributes": {
            "NORMAL": 1,
            "POSITION": 0
          },
          "indices": 2,
          "material": 0,
          "mode": 4
        }
      ]
    },
    {
      "name": "T:Carbon2_Geo_lodA_Carbon2_Geo_lodA_Toyota_SupraMKIVF1_1994Carbon2_Material_T:Toyota_SupraMKIVF1_1994Carbon2_Material1_0",
      "primitives": [
        {
          "attributes": {
            "NORMAL": 4,
            "POSITION": 3,
            "TANGENT": 5,
            "TEXCOORD_0": 6,
            "TEXCOORD_1": 7
          },
          "indices": 8,
          "material": 1,
          "mode": 4
        }
      ]
    },
    {
      "name": "T:Coloured_Geo_lodA_Coloured_Geo_lodA_Toyota_SupraMKIVF1_1994Coloured_Material_T:Toyota_SupraMKIVF1_1994Coloured_Material1_0",
      "primitives": [
        {
          "attributes": {
            "NORMAL": 10,
            "POSITION": 9,
            "TEXCOORD_0": 11
          },
          "indices": 12,
          "material": 2,
          "mode": 4
        }
      ]
    },
    {
      "name": "T:Engine_Geo_lodA_Engine_Geo_lodA_Toyota_SupraMKIVF1_1994EngineA_Material_T:Toyota_SupraMKIVF1_1994EngineA_Material1_0",
      "primitives": [
        {
          "attributes": {
            "NORMAL": 14,
            "POSITION": 13,
            "TANGENT": 15,
            "TEXCOORD_0": 16,
            "TEXCOORD_1": 17,
            "TEXCOORD_2": 18
          },
          "indices": 19,
          "material": 3,
          "mode": 4
        }
      ]
    },
    {
      "name": "T:Grille1_Geo_lodA_Grille1_Geo_lodA_Toyota_SupraMKIVF1_1994Grille1A_Material_T:Toyota_SupraMKIVF1_1994Grille1A_Material1_0",
      "primitives": [
        {
          "attributes": {
            "NORMAL": 21,
            "POSITION": 20,
            "TANGENT": 22,
            "TEXCOORD_0": 23,
            "TEXCOORD_1": 24,
            "TEXCOORD_2": 25
          },
          "indices": 26,
          "material": 4,
          "mode": 4
        }
      ]
    },
    {
      "name": "T:Grille2_Geo_lodA_Grille2_Geo_lodA_Toyota_SupraMKIVF1_1994Grille2A_Material_T:Toyota_SupraMKIVF1_1994Grille2A_Material1_0",
      "primitives": [
        {
          "attributes": {
            "NORMAL": 28,
            "POSITION": 27,
            "TANGENT": 29,
            "TEXCOORD_0": 30,
            "TEXCOORD_1": 31
          },
          "indices": 32,
          "material": 5,
          "mode": 4
        }
      ]
    },
    {
      "name": "T:Grille3_Geo_lodA_Grille3_Geo_lodA_Toyota_SupraMKIVF1_1994Grille3A_Material_T:Toyota_SupraMKIVF1_1994Grille3A_Material1_0",
      "primitives": [
        {
          "attributes": {
            "NORMAL": 34,
            "POSITION": 33,
            "TANGENT": 35,
            "TEXCOORD_0": 36,
            "TEXCOORD_1": 37
          },
          "indices": 38,
          "material": 6,
          "mode": 4
        }
      ]
    },
    {
      "name": "T:Grille4_Geo_lodA_Grille4_Geo_lodA_Toyota_SupraMKIVF1_1994Grille4A_Material_T:Toyota_SupraMKIVF1_1994Grille4A_Material1_0",
      "primitives": [
        {
          "attributes": {
            "NORMAL": 40,
            "POSITION": 39,
            "TANGENT": 41,
            "TEXCOORD_0": 42,
            "TEXCOORD_1": 43,
            "TEXCOORD_2": 44
          },
          "indices": 45,
          "material": 7,
          "mode": 4
        }
      ]
    },
    {
      "name": "T:Grille6_Geo_lodA_Grille6_Geo_lodA_Toyota_SupraMKIVF1_1994Grille6A_Material_T:Toyota_SupraMKIVF1_1994Grille6A_Material1_0",
      "primitives": [
        {
          "attributes": {
            "NORMAL": 47,
            "POSITION": 46,
            "TANGENT": 48,
            "TEXCOORD_0": 49,
            "TEXCOORD_1": 50
          },
          "indices": 51,
          "material": 8,
          "mode": 4
        }
      ]
    },
    {
      "name": "T:Grille7_Geo_lodA_Grille7_Geo_lodA_Toyota_SupraMKIVF1_1994Grille7A_Material_T:Toyota_SupraMKIVF1_1994Grille7A_Material1_0",
      "primitives": [
        {
          "attributes": {
            "NORMAL": 53,
            "POSITION": 52,
            "TANGENT": 54,
            "TEXCOORD_0": 55,
            "TEXCOORD_1": 56
          },
          "indices": 57,
          "material": 9,
          "mode": 4
        }
      ]
    },
    {
      "name": "T:Grille8_Geo_lodA_Grille8_Geo_lodA_Toyota_SupraMKIVF1_1994Grille8A_Material_T:Toyota_SupraMKIVF1_1994Grille8A_Material1_0",
      "primitives": [
        {
          "attributes": {
            "NORMAL": 59,
            "POSITION": 58,
            "TANGENT": 60,
            "TEXCOORD_0": 61,
            "TEXCOORD_1": 62
          },
          "indices": 63,
          "material": 10,
          "mode": 4
        }
      ]
    },
    {
      "name": "T:Interior_Geo_lodA_Interior_Geo_lodA_Toyota_SupraMKIVF1_1994InteriorA_Material_T:Toyota_SupraMKIVF1_1994InteriorA_Material1_0",
      "primitives": [
        {
          "attributes": {
            "NORMAL": 65,
            "POSITION": 64,
            "TANGENT": 66,
            "TEXCOORD_0": 67,
            "TEXCOORD_1": 68,
            "TEXCOORD_2": 69
          },
          "indices": 70,
          "material": 11,
          "mode": 4
        }
      ]
    },
    {
      "name": "T:Light_Geo_lodA_Light_Geo_lodA_Toyota_SupraMKIVF1_1994LightA_Material_T:Toyota_SupraMKIVF1_1994LightA_Material1_0",
      "primitives": [
        {
          "attributes": {
            "NORMAL": 72,
            "POSITION": 71,
            "TEXCOORD_0": 73
          },
          "indices": 74,
          "material": 12,
          "mode": 4
        }
      ]
    },
    {
      "name": "T:ManufacturerPlate_Geo_lodA_ManufacturerPlate_Geo_lodA_Toyota_SupraMKIVF1_1994ManufacturerPlateA_Material_T:Toyota_SupraMKIVF1_1994ManufacturerPlateA_Material1_0",
      "primitives": [
        {
          "attributes": {
            "NORMAL": 76,
            "POSITION": 75,
            "TEXCOORD_0": 77
          },
          "indices": 78,
          "material": 13,
          "mode": 4
        }
      ]
    },
    {
      "name": "T:Paint_Geo_lodA_Paint_Geo_lodA_Toyota_SupraMKIVF1_1994PaintA_Material_T:Toyota_SupraMKIVF1_1994PaintA_Material1_0",
      "primitives": [
        {
          "attributes": {
            "NORMAL": 80,
            "POSITION": 79,
            "TEXCOORD_0": 81
          },
          "indices": 82,
          "material": 14,
          "mode": 4
        }
      ]
    },
    {
      "name": "T:SeatBelt_Geo_lodA_SeatBelt_Geo_lodA_Toyota_SupraMKIVF1_1994SeatBelt_Material_T:Toyota_SupraMKIVF1_1994Coloured_Material1_0",
      "primitives": [
        {
          "attributes": {
            "NORMAL": 84,
            "POSITION": 83,
            "TEXCOORD_0": 85
          },
          "indices": 86,
          "material": 2,
          "mode": 4
        }
      ]
    },
    {
      "name": "T:Textured_Geo_lodA_Textured_Geo_lodA_Toyota_SupraMKIVF1_1994TexturedA_Material_T:Toyota_SupraMKIVF1_1994TexturedA_Material1_0",
      "primitives": [
        {
          "attributes": {
            "NORMAL": 88,
            "POSITION": 87,
            "TEXCOORD_0": 89
          },
          "indices": 90,
          "material": 15,
          "mode": 4
        }
      ]
    },
    {
      "name": "T:Window_Geo_lodA_Window_Geo_lodA_Toyota_SupraMKIVF1_1994Window_Material_T:Toyota_SupraMKIVF1_1994Window_Material1_0",
      "primitives": [
        {
          "attributes": {
            "NORMAL": 92,
            "POSITION": 91,
            "TEXCOORD_0": 93
          },
          "indices": 94,
          "material": 16,
          "mode": 4
        }
      ]
    },
    {
      "name": "T:Window_Geo_lodA_Window_Geo_lodA_Toyota_SupraMKIVF1_1994Window_Material_orange_glass_0",
      "primitives": [
        {
          "attributes": {
            "NORMAL": 96,
            "POSITION": 95,
            "TEXCOORD_0": 97
          },
          "indices": 98,
          "material": 17,
          "mode": 4
        }
      ]
    },
    {
      "name": "T:WindowInside_Geo_lodA_WindowInside_Geo_lodA_Toyota_SupraMKIVF1_1994WindowInside_Material_T:Toyota_SupraMKIVF1_1994Window_Material1_0",
      "primitives": [
        {
          "attributes": {
            "NORMAL": 100,
            "POSITION": 99,
            "TEXCOORD_0": 101
          },
          "indices": 102,
          "material": 16,
          "mode": 4
        }
      ]
    },
    {
      "name": "T:WindowInside_Geo_lodA_WindowInside_Geo_lodA_Toyota_SupraMKIVF1_1994WindowInside_Material_red_glass_0",
      "primitives": [
        {
          "attributes": {
            "NORMAL": 104,
            "POSITION": 103,
            "TEXCOORD_0": 105
          },
          "indices": 106,
          "material": 18,
          "mode": 4
        }
      ]
    },
    {
      "name": "T:WindowInside_Geo_lodA_WindowInside_Geo_lodA_Toyota_SupraMKIVF1_1994WindowInside_Material_orange_glass_0",
      "primitives": [
        {
          "attributes": {
            "NORMAL": 108,
            "POSITION": 107,
            "TEXCOORD_0": 109
          },
          "indices": 110,
          "material": 17,
          "mode": 4
        }
      ]
    },
    {
      "name": "polySurface858_T:Toyota_SupraMKIVF1_1994_Wheel1A_3D_3DWheel1A_Material1_0",
      "primitives": [
        {
          "attributes": {
            "NORMAL": 112,
            "POSITION": 111,
            "TANGENT": 113,
            "TEXCOORD_0": 114,
            "TEXCOORD_1": 115
          },
          "indices": 116,
          "material": 19,
          "mode": 4
        }
      ]
    },
    {
      "name": "polySurface859_T:Toyota_SupraMKIVF1_1994_Wheel1A_3D_3DWheel1A_Material1_0",
      "primitives": [
        {
          "attributes": {
            "NORMAL": 118,
            "POSITION": 117,
            "TANGENT": 119,
            "TEXCOORD_0": 120,
            "TEXCOORD_1": 121
          },
          "indices": 122,
          "material": 19,
          "mode": 4
        }
      ]
    },
    {
      "name": "polySurface860_T:Toyota_SupraMKIVF1_1994_Wheel1A_3D_3DWheel1A_Material1_0",
      "primitives": [
        {
          "attributes": {
            "NORMAL": 124,
            "POSITION": 123,
            "TANGENT": 125,
            "TEXCOORD_0": 126,
            "TEXCOORD_1": 127
          },
          "indices": 128,
          "material": 19,
          "mode": 4
        }
      ]
    },
    {
      "name": "polySurface857_T:Toyota_SupraMKIVF1_1994_Wheel1A_3D_3DWheel1A_Material1_0",
      "primitives": [
        {
          "attributes": {
            "NORMAL": 130,
            "POSITION": 129,
            "TANGENT": 131,
            "TEXCOORD_0": 132,
            "TEXCOORD_1": 133
          },
          "indices": 134,
          "material": 19,
          "mode": 4
        }
      ]
    },
    {
      "name": "polySurface964_T:Toyota_SupraMKIVF1_1994CalliperGloss_Material1_0",
      "primitives": [
        {
          "attributes": {
            "NORMAL": 136,
            "POSITION": 135,
            "TANGENT": 137,
            "TEXCOORD_0": 138
          },
          "indices": 139,
          "material": 20,
          "mode": 4
        }
      ]
    },
    {
      "name": "polySurface963_T:Toyota_SupraMKIVF1_1994CalliperGloss_Material1_0",
      "primitives": [
        {
          "attributes": {
            "NORMAL": 141,
            "POSITION": 140,
            "TANGENT": 142,
            "TEXCOORD_0": 143
          },
          "indices": 144,
          "material": 20,
          "mode": 4
        }
      ]
    },
    {
      "name": "polySurface962_T:Toyota_SupraMKIVF1_1994CalliperGloss_Material1_0",
      "primitives": [
        {
          "attributes": {
            "NORMAL": 146,
            "POSITION": 145,
            "TANGENT": 147,
            "TEXCOORD_0": 148
          },
          "indices": 149,
          "material": 20,
          "mode": 4
        }
      ]
    },
    {
      "name": "polySurface961_T:Toyota_SupraMKIVF1_1994CalliperGloss_Material1_0",
      "primitives": [
        {
          "attributes": {
            "NORMAL": 151,
            "POSITION": 150,
            "TANGENT": 152,
            "TEXCOORD_0": 153
          },
          "indices": 154,
          "material": 20,
          "mode": 4
        }
      ]
    },
    {
      "name": "UnderLighting_Toyota_SupraMKIVF1_1994UnderLightingA_Material_0",
      "primitives": [
        {
          "attributes": {
            "NORMAL": 156,
            "POSITION": 155,
            "TEXCOORD_0": 157
          },
          "indices": 158,
          "material": 21,
          "mode": 4
        }
      ]
    }
  ],
  "nodes": [
    {
      "children": [
        1
      ],
      "matrix": [
        1.0,
        0.0,
        0.0,
        0.0,
        0.0,
        2.220446049250313e-16,
        -1.0,
        0.0,
        0.0,
        1.0,
        2.220446049250313e-16,
        0.0,
        0.0,
        0.0,
        0.0,
        1.0
      ],
      "name": "Sketchfab_model"
    },
    {
      "children": [
        2
      ],
      "matrix": [
        0.009999999776482582,
        0.0,
        0.0,
        0.0,
        0.0,
        0.0,
        0.009999999776482582,
        0.0,
        0.0,
        -0.009999999776482582,
        0.0,
        0.0,
        0.0,
        0.0,
        0.0,
        1.0
      ],
      "name": "FINAL_MODEL_SUPRA.fbx"
    },
    {
      "children": [
        3,
        5,
        7,
        9,
        11,
        13,
        15,
        17,
        19,
        21,
        23,
        25,
        27,
        29,
        31,
        33,
        35,
        37,
        40,
        44,
        57
      ],
      "name": "RootNode"
    },
    {
      "children": [
        4
      ],
      "matrix": [
        1.0,
        0.0,
        0.0,
        0.0,
        0.0,
        1.0,
        0.0,
        0.0,
        0.0,
        0.0,
        1.0,
        0.0,
        0.0,
        0.16785769164562225,
        0.0,
        1.0
      ],
      "name": "T:Base_Geo_lodA_Base_Geo_lodA_Toyota_SupraMKIVF1_1994Base_Material"
    },
    {
      "mesh": 0,
      "name": "T:Base_Geo_lodA_Base_Geo_lodA_Toyota_SupraMKIVF1_1994Base_Material_T:Toyota_SupraMKIVF1_1994Base_Material1_0"
    },
    {
      "children": [
        6
      ],
      "matrix": [
        1.0,
        0.0,
        0.0,
        0.0,
        0.0,
        1.0,
        0.0,
        0.0,
        0.0,
        0.0,
        1.0,
        0.0,
        0.0,
        0.16785769164562225,
        0.0,
        1.0
      ],
      "name": "T:Carbon2_Geo_lodA_Carbon2_Geo_lodA_Toyota_SupraMKIVF1_1994Carbon2_Material"
    },
    {
      "mesh": 1,
      "name": "T:Carbon2_Geo_lodA_Carbon2_Geo_lodA_Toyota_SupraMKIVF1_1994Carbon2_Material_T:Toyota_SupraMKIVF1_1994Carbon2_Material1_0"
    },
    {
      "children": [
        8
      ],
      "matrix": [
        1.0,
        0.0,
        0.0,
        0.0,
        0.0,
        1.0,
        0.0,
        0.0,
        0.0,
        0.0,
        1.0,
        0.0,
        0.0,
        0.16785769164562225,
        0.0,
        1.0
      ],
      "name": "T:Coloured_Geo_lodA_Coloured_Geo_lodA_Toyota_SupraMKIVF1_1994Coloured_Material"
    },
    {
      "mesh": 2,
      "name": "T:Coloured_Geo_lodA_Coloured_Geo_lodA_Toyota_SupraMKIVF1_1994Coloured_Material_T:Toyota_SupraMKIVF1_1994Coloured_Material1_0"
    },
    {
      "children": [
        10
      ],
      "matrix": [
        1.0,
        0.0,
        0.0,
        0.0,
        0.0,
        1.0,
        0.0,
        0.0,
        0.0,
        0.0,
        1.0,
        0.0,
        0.0,
        0.16785769164562225,
        0.0,
        1.0
      ],
      "name": "T:Engine_Geo_lodA_Engine_Geo_lodA_Toyota_SupraMKIVF1_1994EngineA_Material"
    },
    {
      "mesh": 3,
      "name": "T:Engine_Geo_lodA_Engine_Geo_lodA_Toyota_SupraMKIVF1_1994EngineA_Material_T:Toyota_SupraMKIVF1_1994EngineA_Material1_0"
    },
    {
      "children": [
        12
      ],
      "matrix": [
        1.0,
        0.0,
        0.0,
        0.0,
        0.0,
        1.0,
        0.0,
        0.0,
        0.0,
        0.0,
        1.0,
        0.0,
        0.0,
        0.16785769164562225,
        0.0,
        1.0
      ],
      "name": "T:Grille1_Geo_lodA_Grille1_Geo_lodA_Toyota_SupraMKIVF1_1994Grille1A_Material"
    },
    {
      "mesh": 4,
      "name": "T:Grille1_Geo_lodA_Grille1_Geo_lodA_Toyota_SupraMKIVF1_1994Grille1A_Material_T:Toyota_SupraMKIVF1_1994Grille1A_Material1_0"
    },
    {
      "children": [
        14
      ],
      "matrix": [
        1.0,
        0.0,
        0.0,
        0.0,
        0.0,
        1.0,
        0.0,
        0.0,
        0.0,
        0.0,
        1.0,
        0.0,
        0.0,
        0.16785769164562225,
        0.0,
        1.0
      ],
      "name": "T:Grille2_Geo_lodA_Grille2_Geo_lodA_Toyota_SupraMKIVF1_1994Grille2A_Material"
    },
    {
      "mesh": 5,
      "name": "T:Grille2_Geo_lodA_Grille2_Geo_lodA_Toyota_SupraMKIVF1_1994Grille2A_Material_T:Toyota_SupraMKIVF1_1994Grille2A_Material1_0"
    },
    {
      "children": [
        16
      ],
      "matrix": [
        1.0,
        0.0,
        0.0,
        0.0,
        0.0,
        1.0,
        0.0,
        0.0,
        0.0,
        0.0,
        1.0,
        0.0,
        0.0,
        0.16785769164562225,
        0.0,
        1.0
      ],
      "name": "T:Grille3_Geo_lodA_Grille3_Geo_lodA_Toyota_SupraMKIVF1_1994Grille3A_Material"
    },
    {
      "mesh": 6,
      "name": "T:Grille3_Geo_lodA_Grille3_Geo_lodA_Toyota_SupraMKIVF1_1994Grille3A_Material_T:Toyota_SupraMKIVF1_1994Grille3A_Material1_0"
    },
    {
      "children": [
        18
      ],
      "matrix": [
        1.0,
        0.0,
        0.0,
        0.0,
        0.0,
        1.0,
        0.0,
        0.0,
        0.0,
        0.0,
        1.0,
        0.0,
        0.0,
        0.16785769164562225,
        0.0,
        1.0
      ],
      "name": "T:Grille4_Geo_lodA_Grille4_Geo_lodA_Toyota_SupraMKIVF1_1994Grille4A_Material"
    },
    {
      "mesh": 7,
      "name": "T:Grille4_Geo_lodA_Grille4_Geo_lodA_Toyota_SupraMKIVF1_1994Grille4A_Material_T:Toyota_SupraMKIVF1_1994Grille4A_Material1_0"
    },
    {
      "children": [
        20
      ],
      "matrix": [
        1.0,
        0.0,
        0.0,
        0.0,
        0.0,
        1.0,
        0.0,
        0.0,
        0.0,
        0.0,
        1.0,
        0.0,
        0.0,
        0.16785769164562225,
        0.0,
        1.0
      ],
      "name": "T:Grille6_Geo_lodA_Grille6_Geo_lodA_Toyota_SupraMKIVF1_1994Grille6A_Material"
    },
    {
      "mesh": 8,
      "name": "T:Grille6_Geo_lodA_Grille6_Geo_lodA_Toyota_SupraMKIVF1_1994Grille6A_Material_T:Toyota_SupraMKIVF1_1994Grille6A_Material1_0"
    },
    {
      "children": [
        22
      ],
      "matrix": [
        1.0,
        0.0,
        0.0,
        0.0,
        0.0,
        1.0,
        0.0,
        0.0,
        0.0,
        0.0,
        1.0,
        0.0,
        0.0,
        0.16785769164562225,
        0.0,
        1.0
      ],
      "name": "T:Grille7_Geo_lodA_Grille7_Geo_lodA_Toyota_SupraMKIVF1_1994Grille7A_Material"
    },
    {
      "mesh": 9,
      "name": "T:Grille7_Geo_lodA_Grille7_Geo_lodA_Toyota_SupraMKIVF1_1994Grille7A_Material_T:Toyota_SupraMKIVF1_1994Grille7A_Material1_0"
    },
    {
      "children": [
        24
      ],
      "matrix": [
        1.0,
        0.0,
        0.0,
        0.0,
        0.0,
        1.0,
        0.0,
        0.0,
        0.0,
        0.0,
        1.0,
        0.0,
        0.0,
        0.16785769164562225,
        0.0,
        1.0
      ],
      "name": "T:Grille8_Geo_lodA_Grille8_Geo_lodA_Toyota_SupraMKIVF1_1994Grille8A_Material"
    },
    {
      "mesh": 10,
      "name": "T:Grille8_Geo_lodA_Grille8_Geo_lodA_Toyota_SupraMKIVF1_1994Grille8A_Material_T:Toyota_SupraMKIVF1_1994Grille8A_Material1_0"
    },
    {
      "children": [
        26
      ],
      "matrix": [
        1.0,
        0.0,
        0.0,
        0.0,
        0.0,
        1.0,
        0.0,
        0.0,
        0.0,
        0.0,
        1.0,
        0.0,
        0.0,
        0.16785769164562225,
        0.0,
        1.0
      ],
      "name": "T:Interior_Geo_lodA_Interior_Geo_lodA_Toyota_SupraMKIVF1_1994InteriorA_Material"
    },
    {
      "mesh": 11,
      "name": "T:Interior_Geo_lodA_Interior_Geo_lodA_Toyota_SupraMKIVF1_1994InteriorA_Material_T:Toyota_SupraMKIVF1_1994InteriorA_Material1_0"
    },
    {
      "children": [
        28
      ],
      "matrix": [
        1.0,
        0.0,
        0.0,
        0.0,
        0.0,
        1.0,
        0.0,
        0.0,
        0.0,
        0.0,
        1.0,
        0.0,
        0.0,
        0.16785769164562225,
        0.0,
        1.0
      ],
      "name": "T:Light_Geo_lodA_Light_Geo_lodA_Toyota_SupraMKIVF1_1994LightA_Material"
    },
    {
      "mesh": 12,
      "name": "T:Light_Geo_lodA_Light_Geo_lodA_Toyota_SupraMKIVF1_1994LightA_Material_T:Toyota_SupraMKIVF1_1994LightA_Material1_0"
    },
    {
      "children": [
        30
      ],
      "matrix": [
        1.0,
        0.0,
        0.0,
        0.0,
        0.0,
        1.0,
        0.0,
        0.0,
        0.0,
        0.0,
        1.0,
        0.0,
        0.0,
        0.16785769164562225,
        0.0,
        1.0
      ],
      "name": "T:ManufacturerPlate_Geo_lodA_ManufacturerPlate_Geo_lodA_Toyota_SupraMKIVF1_1994ManufacturerPlateA_Material"
    },
    {
      "mesh": 13,
      "name": "T:ManufacturerPlate_Geo_lodA_ManufacturerPlate_Geo_lodA_Toyota_SupraMKIVF1_1994ManufacturerPlateA_Material_T:Toyota_SupraMKIVF1_1994ManufacturerPlateA_Material1_0"
    },
    {
      "children": [
        32
      ],
      "matrix": [
        1.0,
        0.0,
        0.0,
        0.0,
        0.0,
        1.0,
        0.0,
        0.0,
        0.0,
        0.0,
        1.0,
        0.0,
        0.0,
        0.16785769164562225,
        0.0,
        1.0
      ],
      "name": "T:Paint_Geo_lodA_Paint_Geo_lodA_Toyota_SupraMKIVF1_1994PaintA_Material"
    },
    {
      "mesh": 14,
      "name": "T:Paint_Geo_lodA_Paint_Geo_lodA_Toyota_SupraMKIVF1_1994PaintA_Material_T:Toyota_SupraMKIVF1_1994PaintA_Material1_0"
    },
    {
      "children": [
        34
      ],
      "matrix": [
        1.0,
        0.0,
        0.0,
        0.0,
        0.0,
        1.0,
        0.0,
        0.0,
        0.0,
        0.0,
        1.0,
        0.0,
        0.0,
        0.16785769164562225,
        0.0,
        1.0
      ],
      "name": "T:SeatBelt_Geo_lodA_SeatBelt_Geo_lodA_Toyota_SupraMKIVF1_1994SeatBelt_Material"
    },
    {
      "mesh": 15,
      "name": "T:SeatBelt_Geo_lodA_SeatBelt_Geo_lodA_Toyota_SupraMKIVF1_1994SeatBelt_Material_T:Toyota_SupraMKIVF1_1994Coloured_Material1_0"
    },
    {
      "children": [
        36
      ],
      "matrix": [
        1.0,
        0.0,
        0.0,
        0.0,
        0.0,
        1.0,
        0.0,
        0.0,
        0.0,
        0.0,
        1.0,
        0.0,
        0.0,
        0.16785769164562225,
        0.0,
        1.0
      ],
      "name": "T:Textured_Geo_lodA_Textured_Geo_lodA_Toyota_SupraMKIVF1_1994TexturedA_Material"
    },
    {
      "mesh": 16,
      "name": "T:Textured_Geo_lodA_Textured_Geo_lodA_Toyota_SupraMKIVF1_1994TexturedA_Material_T:Toyota_SupraMKIVF1_1994TexturedA_Material1_0"
    },
    {
      "children": [
        38,
        39
      ],
      "matrix": [
        1.0,
        0.0,
        0.0,
        0.0,
        0.0,
        1.0,
        0.0,
        0.0,
        0.0,
        0.0,
        1.0,
        0.0,
        0.0,
        0.16785769164562225,
        0.0,
        1.0
      ],
      "name": "T:Window_Geo_lodA_Window_Geo_lodA_Toyota_SupraMKIVF1_1994Window_Material"
    },
    {
      "mesh": 17,
      "name": "T:Window_Geo_lodA_Window_Geo_lodA_Toyota_SupraMKIVF1_1994Window_Material_T:Toyota_SupraMKIVF1_1994Window_Material1_0"
    },
    {
      "mesh": 18,
      "name": "T:Window_Geo_lodA_Window_Geo_lodA_Toyota_SupraMKIVF1_1994Window_Material_orange_glass_0"
    },
    {
      "children": [
        41,
        42,
        43
      ],
      "matrix": [
        1.0,
        0.0,
        0.0,
        0.0,
        0.0,
        1.0,
        0.0,
        0.0,
        0.0,
        0.0,
        1.0,
        0.0,
        0.0,
        0.16785769164562225,
        0.0,
        1.0
      ],
      "name": "T:WindowInside_Geo_lodA_WindowInside_Geo_lodA_Toyota_SupraMKIVF1_1994WindowInside_Material"
    },
    {
      "mesh": 19,
      "name": "T:WindowInside_Geo_lodA_WindowInside_Geo_lodA_Toyota_SupraMKIVF1_1994WindowInside_Material_T:Toyota_SupraMKIVF1_1994Window_Material1_0"
    },
    {
      "mesh": 20,
      "name": "T:WindowInside_Geo_lodA_WindowInside_Geo_lodA_Toyota_SupraMKIVF1_1994WindowInside_Material_red_glass_0"
    },
    {
      "mesh": 21,
      "name": "T:WindowInside_Geo_lodA_WindowInside_Geo_lodA_Toyota_SupraMKIVF1_1994WindowInside_Material_orange_glass_0"
    },
    {
      "children": [
        45,
        48,
        51,
        54
      ],
      "name": "Wheel1A_3D"
    },
    {
      "children": [
        46
      ],
      "matrix": [
        0.9998476976437108,
        0.01745226393825972,
        0.0,
        0.0,
        -0.01745226393825972,
        0.9998476976437108,
        0.0,
        0.0,
        0.0,
        0.0,
        1.0,
        0.0,
        0.7620000243186951,
        0.31200000643730164,
        1.3035999536514282,
        1.0
      ],
      "name": "3DWheel Front L"
    },
    {
      "children": [
        47
      ],
      "name": "polySurface858"
    },
    {
      "mesh": 22,
      "name": "polySurface858_T:Toyota_SupraMKIVF1_1994_Wheel1A_3D_3DWheel1A_Material1_0"
    },
    {
      "children": [
        49
      ],
      "matrix": [
        -0.9998476998042127,
        0.017452140161735328,
        3.851859888774472e-34,
        0.0,
        0.017452140161735328,
        0.9998476998042127,
        -1.2246467991473532e-16,
        0.0,
        -2.1372707587340147e-18,
        -1.224460285200073e-16,
        -1.0,
        0.0,
        -0.7620000243186951,
        0.31200000643730164,
        1.3035999536514282,
        1.0
      ],
      "name": "3DWheel Front R"
    },
    {
      "children": [
        50
      ],
      "matrix": [
        1.0,
        -9.434335767103472e-50,
        -3.851859888774472e-34,
        0.0,
        9.434335767103472e-50,
        1.0,
        4.930380657631324e-32,
        0.0,
        3.851859888774472e-34,
        -4.930380657631324e-32,
        1.0,
        0.0,
        2.220446049250313e-16,
        0.0,
        0.0,
        1.0
      ],
      "name": "polySurface859"
    },
    {
      "mesh": 23,
      "name": "polySurface859_T:Toyota_SupraMKIVF1_1994_Wheel1A_3D_3DWheel1A_Material1_0"
    },
    {
      "children": [
        52
      ],
      "matrix": [
        0.9996573256835839,
        0.0261769212694119,
        0.0,
        0.0,
        -0.0261769212694119,
        0.9996573256835839,
        0.0,
        0.0,
        0.0,
        0.0,
        1.0,
        0.0,
        0.7620000243186951,
        0.3077999949455261,
        -1.2342000007629395,
        1.0
      ],
      "name": "3DWheel Rear L"
    },
    {
      "children": [
        53
      ],
      "name": "polySurface860"
    },
    {
      "mesh": 24,
      "name": "polySurface860_T:Toyota_SupraMKIVF1_1994_Wheel1A_3D_3DWheel1A_Material1_0"
    },
    {
      "children": [
        55
      ],
      "matrix": [
        -0.9996573249755576,
        0.026176948307873427,
        3.851859888774472e-34,
        0.0,
        0.026176948307873427,
        0.9996573249755573,
        -1.2246467991473532e-16,
        0.0,
        -3.205751595668292e-18,
        -1.224227143275522e-16,
        -1.0000000000000004,
        0.0,
        -0.7620000243186951,
        0.3077999949455261,
        -1.2342000007629395,
        1.0
      ],
      "name": "3DWheel Rear R"
    },
    {
      "children": [
        56
      ],
      "matrix": [
        1.0,
        -3.469446951953616e-18,
        -1.190961647241188e-34,
        0.0,
        3.469446951953616e-18,
        1.0,
        -2.4651903288156613e-32,
        0.0,
        1.190961647241189e-34,
        2.4651903288156613e-32,
        1.0,
        0.0,
        0.0,
        0.0,
        0.0,
        1.0
      ],
      "name": "polySurface857"
    },
    {
      "mesh": 25,
      "name": "polySurface857_T:Toyota_SupraMKIVF1_1994_Wheel1A_3D_3DWheel1A_Material1_0"
    },
    {
      "children": [
        58,
        62,
        66,
        70,
        74
      ],
      "name": "Common"
    },
    {
      "children": [
        59
      ],
      "matrix": [
        0.9998476915978549,
        0.01745261030449941,
        0.0,
        0.0,
        -0.01745261030449941,
        0.9998476915978549,
        0.0,
        0.0,
        0.0,
        0.0,
        1.0,
        0.0,
        0.7620000243186951,
        0.31200000643730164,
        1.3035999536514282,
        1.0
      ],
      "name": "Calliper Front L"
    },
    {
      "children": [
        60
      ],
      "matrix": [
        0.9799782246056059,
        -0.0012451996222901142,
        0.006406975548294181,
        0.0,
        -0.0012452000152987717,
        0.9086621557791207,
        0.36705847489350585,
        0.0,
        -0.00640697747918429,
        -0.36705849721869466,
        0.9086404761750653,
        0.0,
        0.012199999764561653,
        0.04839999973773956,
        -0.12325131893157959,
        1.0
      ],
      "name": "CalliperBody Front L"
    },
    {
      "children": [
        61
      ],
      "matrix": [
        1.0,
        3.4694469519536134e-18,
        0.0,
        0.0,
        -3.4694469519536134e-18,
        1.0,
        0.0,
        0.0,
        0.0,
        0.0,
        1.0,
        0.0,
        0.0,
        -1.1102230246251565e-16,
        0.0,
        1.0
      ],
      "name": "polySurface964"
    },
    {
      "mesh": 26,
      "name": "polySurface964_T:Toyota_SupraMKIVF1_1994CalliperGloss_Material1_0"
    },
    {
      "children": [
        63
      ],
      "matrix": [
        -0.9998476905084952,
        0.01745267271283069,
        -8.74094584151137e-08,
        0.0,
        0.01745267271283076,
        0.9998476905084988,
        1.2246468008863796e-16,
        0.0,
        8.739614512708744e-08,
        -1.525528547278742e-09,
        -0.9999999999999964,
        0.0,
        -0.7620000243186951,
        0.31200000643730164,
        1.3035999536514282,
        1.0
      ],
      "name": "Calliper Front R"
    },
    {
      "children": [
        64
      ],
      "matrix": [
        0.9799710971049768,
        -0.0012528200990358414,
        0.007416187672830859,
        -0.0,
        0.003939272125928786,
        0.9086651262827621,
        -0.36703209433513245,
        -0.0,
        0.006407149945893843,
        -0.3670511399720561,
        -0.9086435112762526,
        -0.0,
        0.012199999764561653,
        0.04839999973773956,
        0.1232512965798378,
        1.0
      ],
      "name": "CalliperBody Front R"
    },
    {
      "children": [
        65
      ],
      "matrix": [
        1.0,
        1.7347234759768067e-18,
        1.7347234759768067e-18,
        0.0,
        -1.7347234759768067e-18,
        1.0,
        0.0,
        0.0,
        -1.7347234759768067e-18,
        -3.0092655381050547e-36,
        1.0,
        0.0,
        -2.220446049250313e-16,
        -1.1102230246251565e-16,
        -2.220446049250313e-16,
        1.0
      ],
      "name": "polySurface963"
    },
    {
      "mesh": 27,
      "name": "polySurface963_T:Toyota_SupraMKIVF1_1994CalliperGloss_Material1_0"
    },
    {
      "children": [
        67
      ],
      "matrix": [
        0.9996573209452377,
        0.02617710221911375,
        0.0,
        0.0,
        -0.02617710221911375,
        0.9996573209452377,
        0.0,
        0.0,
        0.0,
        0.0,
        1.0,
        0.0,
        0.7620000243186951,
        0.3077999949455261,
        -1.2342000007629395,
        1.0
      ],
      "name": "Calliper Rear L"
    },
    {
      "children": [
        68
      ],
      "matrix": [
        0.9199542913111697,
        -0.0017530121843683417,
        0.009021561529761664,
        0.0,
        -0.0017530119909350155,
        0.8530552395568135,
        0.344519861934042,
        0.0,
        -0.009021559207336653,
        -0.3445197949717413,
        0.8530091695743173,
        0.0,
        0.028059830889105797,
        0.047011975198984146,
        -0.11919951438903809,
        1.0
      ],
      "name": "CalliperBody Rear L"
    },
    {
      "children": [
        69
      ],
      "matrix": [
        1.0,
        2.6020852139652106e-18,
        1.7347234759768067e-18,
        0.0,
        -2.6020852139652106e-18,
        1.0,
        1.6653345369377348e-16,
        0.0,
        -1.7347234759768063e-18,
        -1.6653345369377348e-16,
        1.0,
        0.0,
        0.0,
        -1.1102230246251565e-16,
        0.0,
        1.0
      ],
      "name": "polySurface962"
    },
    {
      "mesh": 28,
      "name": "polySurface962_T:Toyota_SupraMKIVF1_1994CalliperGloss_Material1_0"
    },
    {
      "children": [
        71
      ],
      "matrix": [
        -0.999657318004175,
        0.02617721453272124,
        -8.739281486470012e-08,
        0.0,
        0.026177214532721337,
        0.9996573180041788,
        1.2246467967504765e-16,
        0.0,
        8.736286692368765e-08,
        -2.28770034090894e-09,
        -0.9999999999999962,
        0.0,
        -0.7620000243186951,
        0.3077999949455261,
        -1.2342000007629395,
        1.0
      ],
      "name": "Calliper Rear R"
    },
    {
      "children": [
        72
      ],
      "matrix": [
        0.9199392830290894,
        -0.0017567972855810417,
        0.01043977630088918,
        -0.0,
        0.005538330197110226,
        0.8530556425429453,
        -0.3444788058468835,
        -0.0,
        0.00902231283681801,
        -0.3445188001885303,
        -0.853009627669022,
        -0.0,
        0.028059830889105797,
        0.047011975198984146,
        0.11919949948787689,
        1.0
      ],
      "name": "CalliperBody Rear R"
    },
    {
      "children": [
        73
      ],
      "matrix": [
        1.0,
        8.6736173798840345e-19,
        -3.469446951953614e-18,
        0.0,
        -8.673617379884035e-19,
        1.0,
        -5.551115123125783e-17,
        0.0,
        3.469446951953614e-18,
        5.551115123125783e-17,
        1.0,
        0.0,
        2.220446049250313e-16,
        0.0,
        0.0,
        1.0
      ],
      "name": "polySurface961"
    },
    {
      "mesh": 29,
      "name": "polySurface961_T:Toyota_SupraMKIVF1_1994CalliperGloss_Material1_0"
    },
    {
      "children": [
        75
      ],
      "matrix": [
        1.0,
        0.0,
        0.0,
        0.0,
        0.0,
        1.0,
        0.0,
        0.0,
        0.0,
        0.0,
        1.0,
        0.0,
        0.0,
        -0.013707185164093971,
        0.0,
        1.0
      ],
      "name": "UnderLighting"
    },
    {
      "mesh": 30,
      "name": "UnderLighting_Toyota_SupraMKIVF1_1994UnderLightingA_Material_0"
    }
  ],
  "samplers": [
    {
      "magFilter": 9729,
      "minFilter": 9987,
      "wrapS": 10497,
      "wrapT": 10497
    }
  ],
  "scene": 0,
  "scenes": [
    {
      "name": "Sketchfab_Scene",
      "nodes": [
        0
      ]
    }
  ],
  "textures": [
    {
      "sampler": 0,
      "source": 0
    },
    {
      "sampler": 0,
      "source": 1
    },
    {
      "sampler": 0,
      "source": 2
    },
    {
      "sampler": 0,
      "source": 3
    },
    {
      "sampler": 0,
      "source": 4
    },
    {
      "sampler": 0,
      "source": 5
    },
    {
      "sampler": 0,
      "source": 6
    },
    {
      "sampler": 0,
      "source": 7
    },
    {
      "sampler": 0,
      "source": 8
    },
    {
      "sampler": 0,
      "source": 9
    },
    {
      "sampler": 0,
      "source": 10
    },
    {
      "sampler": 0,
      "source": 11
    },
    {
      "sampler": 0,
      "source": 12
    },
    {
      "sampler": 0,
      "source": 13
    },
    {
      "sampler": 0,
      "source": 14
    },
    {
      "sampler": 0,
      "source": 15
    },
    {
      "sampler": 0,
      "source": 16
    },
    {
      "sampler": 0,
      "source": 17
    },
    {
      "sampler": 0,
      "source": 18
    },
    {
      "sampler": 0,
      "source": 19
    },
    {
      "sampler": 0,
      "source": 20
    },
    {
      "sampler": 0,
      "source": 21
    },
    {
      "sampler": 0,
      "source": 22
    },
    {
      "sampler": 0,
      "source": 23
    },
    {
      "sampler": 0,
      "source": 24
    },
    {
      "sampler": 0,
      "source": 25
    },
    {
      "sampler": 0,
      "source": 26
    },
    {
      "sampler": 0,
      "source": 27
    },
    {
      "sampler": 0,
      "source": 28
    },
    {
      "sampler": 0,
      "source": 29
    },
    {
      "sampler": 0,
      "source": 30
    },
    {
      "sampler": 0,
      "source": 31
    }
  ]
}
